<svg xmlns="http://www.w3.org/2000/svg" xml:space="preserve" width="508" height="484" style="shape-rendering:geometricPrecision;text-rendering:geometricPrecision;image-rendering:optimizeQuality;fill-rule:evenodd;clip-rule:evenodd" viewBox="0 0 508 484.37"><defs><style>.fil3{fill:#ed8423}.fil0{fill:#f79a32}</style></defs><g id="Слой_x0020_1"><g id="_2654332051488"><path d="M89.59 205.93c-4.94-17.31 17.92-27.82 16.59 2.75-8.6 1.05-9.37 1.21-16.59-2.75zm115.27-22.92c-1.32 6.96 1.28.56-3.88 9.8-10.55-.23-20.12-7.46-24.21-14.49-4.59-7.86-7.24-17.82-12.01-26.73l-1.29-13.08c-44.95 1.82-61.86 25.22-82.34 51.05-16.93 21.37-39.83 12.63-53.18 9.71-8.22-1.8-2.64-2.58-8.52 2.09 8.53.89 12.99 4.27 20.2 7.71 49.91 23.85 126.84 15.69 143.85 47.04-20.86 8.92-50.37 16-61.43 50.92-2.72 8.57-6.22 63.68-3.51 77.75 1.04 5.35 5.21 16.29 4.56 17.97 3.13 4.31-.66.59 3.36 3.82 3.37 2.69 2.89 1.89 5.41 3.1l-3.61-10.42-.93-6.78c6.52 2.12 17.25 4.36 29.03-.46 7.5-3.06 10.28-7.31 13.52-13.33l4.36-7.64c6.95 15.77 30.44 20.7 48.53 18.22 21.57-2.94 35.78-18.34 46.88-19.9 9.32 1.64 22.09 42.61 62.29 24.04 1.56-9.41 1.92-7.5-1.51-16.26-2.1-26.53-19.09-41.51-47.16-44.58-22.25-2.44-51.26.88-70.65-7.51l-8.59-3.88c-17.51 14.15-46.64-22.93-33.18-41.98.38-.54 5.35-5.83 5.96-6.54 12.12-14.14 42.49-7.06 54.98-3.1l4.83-.67c7.43-30.56 4.25-43.91-3.85-71.27l-4.56 11.41c.93-55.9-22.13-88.59-25.4-137.33-3 17.51-.19 39.32 2.27 56.43 5.76 40.13-1.48 39.31-.22 54.89z" class="fil0"/><path d="M377.89 282.64c-3.74 49.29-51.49 55.09-59.35 61.63 6.05 5.25 3.98 8.11 14.65 9.35 5.99.7 19.24-.36 25.68-.85 15.55-1.19 28.38-3.62 43.2-6.9l-3.51-1.14c-.44-.05-1.25-.29-1.79-.32l-10.94 1.83c-7 1.43-11.42.83-17.16 2.03-6.43 1.35-13.52 6.4-27.15 3.69-12.67-2.52-4.82-.11-7.57-3.25 7.99-3.68 20.64-3.2 29.85-6.23 31.36-10.34 45.89-19.74 68.73-45.58 19.25-21.78 43.32-57.05 47.77-85.35l4.6-16.87 6.38 11c-6.02-48.57-25.33-53.81-49.19-72.12-8.58-6.6-12.65-10.8-15.06-24.28-24.52-.15-43.3.37-67.02-4.14-10.42-1.99-19.1-4.82-28.75-7.64-10.57-3.08-15.49-7.19-25.52-9.68 8.41 17.55 11.89 11.74 20 16.54-.75 5.37-2.99 8.08-.64 13.76 2.72 6.55 20.63 21.41 26.5 25.32 37.18 24.8 58.68 24.6 45.42 90.48-6.58 32.66-18.58 35.63-19.13 48.72z" class="fil0"/><path d="M294.97 79.27c3.39 6.13 5.31 4.71 10.77 8.55 10.03 2.49 14.95 6.6 25.52 9.68 9.65 2.82 18.33 5.65 28.75 7.64 23.72 4.51 42.5 3.99 67.02 4.14-1.39-27.05 10.72-41.64 36.82-37.36 9.94 1.63 18.63 6.1 25.31 12.41 9.69 9.16 9.06 16.41 15.63 24.74C512.01 8.78 386.71-15.02 335.6 21.79c-17.43 12.55-34.99 33.74-40.63 57.48z" style="fill:#feeed9"/><path d="M138.61 422.47c3.52 8.27 6.27 21.49 5.4 31.61l-15.44-.99-12.33-48.36c9.21 2.97 18.54 8.74 22.37 17.74zm93.18-152.92c-14.71.78-29.2 3.3-34.53 14.92-2.77 6.06-2.81 13.26-1.31 20.96 1.57 8.04 4.81 10.77 8.08 15.74l8.59 3.88c19.39 8.39 48.4 5.07 70.65 7.51 28.07 3.07 45.06 18.05 47.16 44.58 6.11 6.1 6.55 32.67 11.96 43.03 6.61 12.64 16.35 30.66-6.95 31.66-6.12-5.52-8.57-11.39-15.76-17.74-5.9-5.21-11.23-8.73-19.15-12.68-28.15-14.04-28.41-36.3-30.7-27.51l11.75 19.25c-37.69 4.83-56.99 16.59-98.93 10.8-1.04-1.72-1.46-3.08-1.83-3.69-2.25-3.71-.87-1.81-3.44-4.62 1.28 10.99-3.18 29.13-7.95 38.37l-19.59-.79c-4.4-9.95-4.88-19.96-8.38-29.85l-8.67-18.94c-3.65-5.59-.91-2.1-4.53-5.18l3.61 10.42c-2.52-1.21-2.04-.41-5.41-3.1-4.02-3.23-.23.49-3.36-3.82-10.62-7.8-10.35-10.03-19.58-19.71-10.11-14.75-19.87-31.76-19.69-55.87.25-32.93 16.63-42.25 22.38-50.91-5.84-20.27-20.34-22.56-44.72-20.67 2.34-4.07 3.15-6.84 8.41-7.47 13.09-1.57-8.9 5.24 6.25.27 9.55-3.13 15.53-4.45 25.86-6.93l6.53 6.32c-2.6-19.21-14.81-6.14-34.16-6.78-19.58-.66-25.51-7.29-38.14-9.28l-23.3-22.97c1.8-2.02 3.86-4.11 6.49-7.39 5.88-4.67.3-3.89 8.52-2.09 13.35 2.92 36.25 11.66 53.18-9.71 20.48-25.83 37.39-49.23 82.34-51.05l1.29 13.08c.48-.22 9.93-78.77 34.58-97.3-.89 22.27 0 46.73 2.12 67.26 1.12 10.94 2.47 20.84 2.54 31.59.04 5.74-.33 10.88-.77 16.57l1.63 13.3c-1.26-15.58 5.98-14.76.22-54.89-2.46-17.11-5.27-38.92-2.27-56.43 3.27 48.74 26.33 81.43 25.4 137.33l4.56-11.41c8.1 27.36 11.28 40.71 3.85 71.27l-4.83.67zm195.24-160.27c2.41 13.48 6.48 17.68 15.06 24.28 23.86 18.31 43.17 23.55 49.19 72.12 7.06 32.03-4.33 71.17-20.49 93.54-14.99 20.73-34.61 38.68-68.72 46.65-14.82 3.28-27.65 5.71-43.2 6.9-6.44.49-19.69 1.55-25.68.85-10.67-1.24-8.6-4.1-14.65-9.35 7.86-6.54 55.61-12.34 59.35-61.63-.34-19.19-11.99-40.55-25.43-44.27-2.09-5.29-.14-1.54-3.68-5.2-1.76-1.82-.94-.67-3.53-2.89-14.49-12.44-35.99-39.15-42.97-56.11-11.95-29.02-17.51-61.24-7.31-94.9 5.64-23.74 23.2-44.93 40.63-57.48 51.11-36.81 176.41-13.01 169.19 87.28-6.57-8.33-5.94-15.58-15.63-24.74-6.68-6.31-15.37-10.78-25.31-12.41-26.1-4.28-38.21 10.31-36.82 37.36zM157.09 87.52c7.86-7.14 16.36-37.06 28.83-42.12 2.7 22.19-5.38 26.86-11.16 44.73-4.21 13.01-4.99 33.8-11.21 44.05l-15.88.98c1.39-13.95 9.63-39.81 9.42-47.64zM318.2 29.05c-3.56 8.27-9.57 12.05-15.54 21.3-4.28 6.63-8.22 13.49-11.39 22.87-6.04 17.9-8.41 39.85-5.02 59.97 1.89 44.22 39.31 93.86 66.21 105.18 2.13 5.77 5.2 7.25 9.13 11.64 25.03 28 11.33 67.91-29.57 84.3-17.15 6.87-15.19 5.24-28.42-.81-26.88-12.3-88.49 1.15-96.87-18.32-3.79-2.77-.96.1-3.88-3.62-4.99-6.34-6.82-22.62-.05-30 8.13-8.87 25.54-5.09 35.95-8.58 15.16-31.72.59-64.36-6.45-86.62-2.37-7.49-4.06-19.58-5.83-28.15-3.73-18.1-8.72-36.39-13-54.77-3.08-13.18-6.05-51.77-9.6-59-6.18 2.1-9.58 7.01-14.19 12.63l3.18-24.86c-11.11 4.43-35 38.54-35.77 55.31-2.44 2.04.3-2.7-3.64 4.75-.12.23-2.14 5.74-2.29 6.23l-7.5 37.14c-36.41 13.01-43.97 22.74-63.18 46.98-30.95 39.06-60.03-.84-77.92 3.01l-.82 9.98c3 6.12 3.72 8.95 7.79 13.85 2.55 3.06 4.03 3.92 6.28 6.57 4.37 5.15 2.73 2.04 4.44 7.44 7.75 3.36 7.99 6.96 15.99 8.25l1.93 2.3c7.02 6.25 18.31 9.39 27.53 10.55-4.41 3.54-8.67 7.34-9.32 13.7 21.56 2.67 34.88-1.74 45.62 15.87-3 6.78-9.23 10.03-14.31 17.62-21.92 32.77-1.43 72.5 16.93 98.58 5.22 7.42 6.51 15.3 9.51 24.38 5.64 17.05 12.42 36.52 8.23 56.79l.96 9.68c9.73-.08 11.81.36 16.25-6.22l2.66 2.54c4.54 3.5-2.3.08 3.89 2.81 5.74 2.53 10.96-.83 15.13-4.56l6.82-6.88c4.89-15 9.99-22 12.87-41.23 26.98 4.63 36.38-.2 60.58-2.33 8.51-3 10.29-5.14 21.54-7.39 8.55-1.72 17.21-4.28 24.07.11 1.07 6-.27 1.36-4.75 8.74-13.6 22.45 7.85 23.89-25.56 26.1-.74-5.6-.54-13.85-5.6-17.19-4.05-2.67.78-4.98-3.27-.33 9.18 21.89 4.47 22.18-3.23 39.51 1.76 4.95-.02 4.86 5.98 6.25 10.5 2.42 19.16-10.17 25.21-16.87 3.86-15.45 7.01-32.92 17.09-41.36 15.76 5.45 36.13 20.64 37.92 37.41.31.52.57.77.66 1.69l3.28 16.58c7.47 1.68 10.12-1.11 16.39-4.76.73-11.36 4.01-19.82 2.51-33.74-1.26-11.69-6.54-14.61-10.31-25.27-3.31-9.35-11.71-47.42-13.44-56.85 52.14-1.47 94.15-7.27 125.94-35.39 26.81-23.72 46.36-66.28 39.13-118.61-1.61-11.65-4.5-22.77-8.53-31.87-15.45-34.84-51.87-36.8-56.83-64.35-4.45-24.77 19.42-40.61 42.79-30.11 23.16 10.41 25.4 27.51 30.88 41.56l2.55 5.07C526.4 4.36 395.05-14.19 343.39 12.6c-13.02 6.75-15.13 11.1-22.49 15.33l-2.7 1.12z" style="fill:#874a25"/><path d="M352.46 238.37c13.44 3.72 25.09 25.08 25.43 44.27.55-13.09 12.55-16.06 19.13-48.72 13.26-65.88-8.24-65.68-45.42-90.48-5.87-3.91-23.78-18.77-26.5-25.32-2.35-5.68-.11-8.39.64-13.76-8.11-4.8-11.59 1.01-20-16.54-5.46-3.84-7.38-2.42-10.77-8.55-10.2 33.66-4.64 65.88 7.31 94.9 6.98 16.96 28.48 43.67 42.97 56.11 2.59 2.22 1.77 1.07 3.53 2.89 3.54 3.66 1.59-.09 3.68 5.2zM128.26 399.25c3.62 3.08.88-.41 4.53 5.18l8.67 18.94c3.5 9.89 3.98 19.9 8.38 29.85l19.59.79c4.77-9.24 9.23-27.38 7.95-38.37l-1.09-22.65c.77.39 1.49.96 2.16 1.43.64.45 1.3.87 2.04 1.41l8.3 6.43c16.06 9.91 72.76 13.51 81.04-8.36 2.29-8.79 2.55 13.47 30.7 27.51 7.92 3.95 13.25 7.47 19.15 12.68 7.19 6.35 9.64 12.22 15.76 17.74 23.3-1 13.56-19.02 6.95-31.66-5.41-10.36-5.85-36.93-11.96-43.03 3.43 8.76 3.07 6.85 1.51 16.26-40.2 18.57-52.97-22.4-62.29-24.04-11.1 1.56-25.31 16.96-46.88 19.9-18.09 2.48-41.58-2.45-48.53-18.22l-4.36 7.64c-3.24 6.02-6.02 10.27-13.52 13.33-11.78 4.82-22.51 2.58-29.03.46l.93 6.78z" class="fil3"/><path d="M402.07 345.87c34.11-7.97 53.73-25.92 68.72-46.65 16.16-22.37 27.55-61.51 20.49-93.54l-6.38-11-4.6 16.87c-4.45 28.3-28.52 63.57-47.77 85.35-22.84 25.84-37.37 35.24-68.73 45.58-9.21 3.03-21.86 2.55-29.85 6.23 2.75 3.14-5.1.73 7.57 3.25 13.63 2.71 20.72-2.34 27.15-3.69 5.74-1.2 10.16-.6 17.16-2.03l10.94-1.83c.54.03 1.35.27 1.79.32l3.51 1.14z" style="fill:#ee8521"/><path d="M36.24 231.72c12.63 1.99 18.56 8.62 38.14 9.28 19.35.64 31.56-12.43 34.16 6.78 7.22-6.87 11.18-4.82 16.27-1.37l9.5 7.83c5.45 3.32 5.81 2.15 13.2 1.96l-9.42 11.56c-10.74-3.91-17.31-6.43-21.22-19.16 1.05 2.48 6.57-4.47-1.02 1.9-6.67 5.59 1.54.08-7.13 2.66-6.47 1.93.86-8.48-3.14 1.21 28.84 8.16 3.28 5.58 28.27 18.64.62.32 1.49.63 2.1 1.13-11.44 16.83-18.46 1.79-20.3 48.74-1.27 32.26-2.82 27.25-4.22 47.96-.94 13.84.97 10.01-7.91 12.2 9.23 9.68 8.96 11.91 19.58 19.71.65-1.68-3.52-12.62-4.56-17.97-2.71-14.07.79-69.18 3.51-77.75 11.06-34.92 40.57-42 61.43-50.92-17.01-31.35-93.94-23.19-143.85-47.04-7.21-3.44-11.67-6.82-20.2-7.71-2.63 3.28-4.69 5.37-6.49 7.39l23.3 22.97z" style="fill:#feeacb"/><path d="M103.52 383.04c8.88-2.19 6.97 1.64 7.91-12.2 1.4-20.71 2.95-15.7 4.22-47.96 1.84-46.95 8.86-31.91 20.3-48.74-.61-.5-1.48-.81-2.1-1.13-24.99-13.06.57-10.48-28.27-18.64 4-9.69-3.33.72 3.14-1.21 8.67-2.58.46 2.93 7.13-2.66 7.59-6.37 2.07.58 1.02-1.9 3.91 12.73 10.48 15.25 21.22 19.16l9.42-11.56c-7.39.19-7.75 1.36-13.2-1.96l-9.5-7.83c-5.09-3.45-9.05-5.5-16.27 1.37l-6.53-6.32c-10.33 2.48-16.31 3.8-25.86 6.93-15.15 4.97 6.84-1.84-6.25-.27-5.26.63-6.07 3.4-8.41 7.47 24.38-1.89 38.88.4 44.72 20.67-5.75 8.66-22.13 17.98-22.38 50.91-.18 24.11 9.58 41.12 19.69 55.87z" style="fill:#fbecdb"/><path d="M164.76 151.59c4.77 8.91 7.42 18.87 12.01 26.73 4.09 7.03 13.66 14.26 24.21 14.49 5.16-9.24 2.56-2.84 3.88-9.8l-1.63-13.3c.44-5.69.81-10.83.77-16.57-.07-10.75-1.42-20.65-2.54-31.59-2.12-20.53-3.01-44.99-2.12-67.26-24.65 18.53-34.1 97.08-34.58 97.3z" style="fill:#e67826"/><path d="M204.03 321.17c-3.27-4.97-6.51-7.7-8.08-15.74-1.5-7.7-1.46-14.9 1.31-20.96 5.33-11.62 19.82-14.14 34.53-14.92-12.49-3.96-42.86-11.04-54.98 3.1-.61.71-5.58 6-5.96 6.54-13.46 19.05 15.67 56.13 33.18 41.98z" class="fil3"/><path d="M177.38 415.64c2.57 2.81 1.19.91 3.44 4.62.37.61.79 1.97 1.83 3.69 41.94 5.79 61.24-5.97 98.93-10.8l-11.75-19.25c-8.28 21.87-64.98 18.27-81.04 8.36l-8.3-6.43c-.74-.54-1.4-.96-2.04-1.41-.67-.47-1.39-1.04-2.16-1.43l1.09 22.65z" style="fill:#d86d27"/><path d="M157.09 87.52c.21 7.83-8.03 33.69-9.42 47.64l15.88-.98c6.22-10.25 7-31.04 11.21-44.05 5.78-17.87 13.86-22.54 11.16-44.73-12.47 5.06-20.97 34.98-28.83 42.12z" style="fill:#f49b3b"/><path d="m241.52 425.32 6.43 10.04c4.05-4.65-.78-2.34 3.27.33 5.06 3.34 4.86 11.59 5.6 17.19 33.41-2.21 11.96-3.65 25.56-26.1 4.48-7.38 5.82-2.74 4.75-8.74-6.86-4.39-15.52-1.83-24.07-.11-11.25 2.25-13.03 4.39-21.54 7.39z" style="fill:#db732b"/><path d="m128.57 453.09 15.44.99c.87-10.12-1.88-23.34-5.4-31.61-3.83-9-13.16-14.77-22.37-17.74l12.33 48.36z" style="fill:#d77735"/><path d="M89.59 205.93c7.22 3.96 7.99 3.8 16.59 2.75 1.33-30.57-21.53-20.06-16.59-2.75z" style="fill:#4d1402"/></g></g></svg>