<!DOCTYPE svg PUBLIC "-//W3C//DTD SVG 1.1//EN" "http://www.w3.org/Graphics/SVG/1.1/DTD/svg11.dtd">
<!-- Uploaded to: SVG Repo, www.svgrepo.com, Transformed by: SVG Repo Mixer Tools -->
<svg fill="#ffffff" width="800px" height="800px" viewBox="0 0 256 256" id="Flat" xmlns="http://www.w3.org/2000/svg" stroke="#ffffff">
<g id="SVGRepo_bgCarrier" stroke-width="0"/>
<g id="SVGRepo_tracerCarrier" stroke-linecap="round" stroke-linejoin="round"/>
<g id="SVGRepo_iconCarrier"> <path d="M56,128a12,12,0,1,1-12-12A12.01343,12.01343,0,0,1,56,128ZM44,180a12,12,0,1,0,12,12A12.01343,12.01343,0,0,0,44,180ZM44,52A12,12,0,1,0,56,64,12.01343,12.01343,0,0,0,44,52ZM88,72H216a8,8,0,0,0,0-16H88a8,8,0,0,0,0,16Zm128,48H88.00586a8,8,0,1,0,0,16H216a8,8,0,0,0,0-16Zm0,64H88.00586a8,8,0,1,0,0,16H216a8,8,0,0,0,0-16Z"/> </g>
</svg>