<svg xmlns="http://www.w3.org/2000/svg" xml:space="preserve" width="220" height="190" style="shape-rendering:geometricPrecision;text-rendering:geometricPrecision;image-rendering:optimizeQuality;fill-rule:evenodd;clip-rule:evenodd"><defs><style>.fil0{fill:#2d4eb1}</style></defs><g id="Слой_x0020_1"><path d="m-390.79-557.51 1.28.97c.51.52.59.61 1.22 1.18.99.91 1.78 1.73 2.41 2.75.85.85.59.48 1.14 1.53l2.47 2.13c.84.76 1.92 1.76 2.31 2.77 1.5 1.17 1.3.82 2.36 2.45l-13.91.18-.03-14.84c.86.57.44.34.75.88zm121.24-80.19c-.89 1.35-1.74 1.53-3.26 2.2-.21.45-.02.2-.75.78-.4.32-.54.41-.93.68-.97.68-1.27.88-2.31 1.15-1.07 1.7-2.07 1.77-3.57 3.02-1.77 1.48-9.23 6.87-9.82 8.48-2.1 1.02-2.24 2.04-4.32 3.18l-.65.71c-.73 1.29-3.69 3.87-5.12 5.07-.62.53.08.08-.8.55l-.14.26c-.96 1.96-2.69 2.65-3.93 4.47-2.19 2.12-9.46 11.64-10.04 13.76-1.15-.43-1.24-.48-2.27-1.11-1.18-.72-1.13-.54-1.92-1.48-1.27-.18-4.31-2.11-5.73-2.93-1.64-.96-4.57-2.04-5.79-2.75l-6.34-2.09c-.06-.14-.2-.11-.29-.18-.74.58-.78-.22-.14 1.12l2.66 3.79c.6.89 1.12 1.64 1.78 2.64 1.11 1.71 1.12 1.29 1.31 2.54 1.27.9.74.47 1.36 2.02.97.62 1.95 2.62 2.14 3.82 1.39.88 1.4 1.67 2.16 3.1.35.65.63.98.92 1.5.9 1.56.49.45.61 1.67 1.17 1.1 2.8 4.37 3.5 5.99.75 1 3.4 5.9 4.52 8.34.21.46.36.83.44 1.07.56-.48 1.14-1.33 1.72-2.35 1.44-2.51 2.93-6.03 4.34-7.4.53-1.71.7-1.42 1.46-2.76.31-.55.3-.75.73-1.29.71-.89.28-.36.94-.8.17-1.19-.79.06.56-1.16l8.27-12.06c.18-1.32.53-1.26 1.39-2.49.8-1.13.53-1.14 1.59-1.88.6-1.28.32-.9 1.43-1.65.2-1.32 1.07-1.87 1.96-3.1l6.86-8.56c.27-.4.67-1.09.89-1.34.85-.98.12-.28 1.05-.8.22-.81-.14-.05.6-1.15.2-.3.48-.66.69-.92.6-.73 1.27-1.37 1.65-1.82.5-.85.01-.17.75-1.01.14-.16.46-.46.76-.82.63-.73.82-1.12 1.81-1.76.14-.94.87-1.78 1.65-2.06.63-.93 1.31-1.89 2.02-2.74.84-.99 1.35-1.51 2.2-1.97.28-1.03.22-1.41 1.39-1.71.68-1.1 1.47-2.34 2.32-3.24.97-1.02 1.73-1.88 2.44-2.49.15-.39-.47-.56.44-.28.69-1.37 3.94-5.32 5.27-6.11l-.05.09c.89-1.85.93-1.16.06-1.46-.18.19-9.99 5.62-10.47 5.72zm-33.15 62.03V-560.47l-.29 12.37c-.09.93-.04 1.18-.37 1.94-.61 1.38-.27.49-.78.95-2.13 1.99-10.96 1.13-14.79 1.12-5.35-.01-10.7 0-16.05 0-1.87 0-5.03.06-8.67.12l40.95-31.7zm-42.59 31.73c-3.27.05-6.82.09-10.1.06l10.1-.06zm-11.39.05c-4.59-.05-8.51-.25-10.16-.71-.53-.95-1.31-1.45-2.17-3.14-.65-1.3-1.3-2.71-1.16-4.25-.34-.51-.02.34-.45-.92-.04-.11-.22-.82-.25-.96-.13-.72-.16-1.61-.21-2.34-.04-2.63-.91-5.21-1.34-7.2l-1.23-.78c-3.5.57-7.82 1.92-11.44 1.27-1.57-.28-3.5-1.06-4.61-1.85-1.8-1.27-1.48-2.14-1.65-4.71v-6.45l.08-5.76v-42.36l.01-5.76v-30.36l-.01-5.52.02-6.54c.3-2.84.79-4.77 3.63-4.51 1.39-.81 13.13-.44 14.54-.41l-.4-.01 17.73.16c-.56 1.42-.34 3.64-.1 5.36l.42 1.24c3.72 1.81 7.7 1.18 12.45 1.2 6.3.03 4.75-2.86 5.14-7.93l12.89-.03h-.4 10.03v.01l9.28.22c-1.03-.94-5.21-.32-6.88-.32.75-1.1 3.69-.92 5.33-1.03l4.7.23c.25 1.53.11.7 1.72 2.23l1.09.97c.12-.05.26-.34.31-.26l.78-.71c.07-.05.15-.14.21-.19 1.35-1.19 2.43.17.71-3.25 2.57 1.08 1.49.62 0 0 1.45-1.89-.93-.58 1.12-.52-1.11-3.37-5.17-4.73-9.86-5.38l-6.15.04-5.82-.07-6.29.05-5.7-.03c-1.75-.04-1.6.31-2.25-.9-.26-1.56-.08-3.84-.41-5.22-.43-1.79-1.09-2.99-1.43-4.34l-.23-.23c-.05-.05-.17-.16-.23-.22l-1.99-2.69c-2.02-.58-3.28-2.56-7.37-3.32-3.25-.3-5.99.01-8.6 1.33-3.16 1.6-3.94 1.64-7.79 2.05-.96.24-4.05.69-5.68.44-.77.58.18.12-1.16.47-.22.05-1.2.2-1.49.24-.91.14-1.61.24-2.53.35l-8.63 1.27-10.28 1.62-5.9.96-6.65.91-6.54.92-5.66.98c-1.59.25-2.31.58-3.88.36l-13.08 2.18c-3.13.55-4.59 1.59-6.53 2.05-.56 1.34-.71 1.51-2.05 2.1-.32 1.27-1.32 2.92-1.8 4.6l.16 5.32 1.07 8.41-9.56 2.72-6.85 1.97-11.1 3.37c-2.61.62-3.68 1.45-5.74 2.4l-1.52 1.33c-.53.99-.91 1.41-1.39 2.45-.42.89-.58 1.7-.96 2.64l.29 5.68 2.08 6.74c.78 2.24 3.26 10.4 3.25 12.22 1.2.97 1.56 4.09 1.97 5.78l1.55 5.75 3.59 12.13 2.06 6.69c.48 1.75.97 3.29 1.48 5.1.27.97.46 1.57.72 2.52.35 1.27.39 1.77 1.07 2.63l-.11.99 1.98 6.46 1.72 6.39 1.83 6.62c.61.88 1.08 2.97 1.03 4.21 1.08 1.1 2 5.41 2.33 7.35.57.72 2.94 9.36 2.88 10.66.66.65.14-.34.74 1.3.19.52.35 1.38.5 1.95.35 1.3.77 2.28.98 3.71l1.77 5.93c2.07 5.55 1.01 7.35 5.35 11.57.49.47.29.19.68.69l-.18-.05c2.38 1 3.07 1.55 6.04 1.9l5.41-.78 12.05-3.59c1.69-.57 3.95-1.52 5.78-1.36 1.15-1.07 6.73-2.35 8.02-2.57l11-3.28 5.85-1.59 11.94-3.62 5.91-1.65 6-1.68 7.03-2.12 5.61-.12h24.07l5.62-.01c5.87-.06 12.8.77 17.94-1.33 3.23-2.14 5.62-3.97 5.91-9.11l.11-5.27.01-5.84-.01-6.12-.02-5.69.03-6.5-.02-5.76.01-2.08c-.01-.42.04-1.61-.07-1.95-.4-1.2.44-.38-.83-.92-.18 1.25.2.22-.7 1.57-1.95 2.94-5.58 6.59-6.13 9.43l-53.98 31.78zm11.39-.05-.12.03.12-.03zm-102.08-18.29-.05-1.51c-.54-1.53-1.25-3.78-1.24-5.48-1.09-1.05-1.92-5.14-2.25-6.86-.56-.96-2.12-6.89-2.31-8.12-.58-1.14-.79-1.88-.72-3.22-.91-1.11-1.69-4.83-2.23-6.44-.75-2.46-3.1-9.65-2.98-11.59-.74-.81-.88-1.8-1.19-2.96-.42-1.51-.76-2.19-.99-3.87l-1.75-5.83-3.55-11.97-1.51-5.57c-.59-1.1-2.87-8.86-2.94-10.33-.11-2.56.82-3.11 2.78-3.76 1.84-.6 3.35-1.09 5.31-1.5l5.94-1.72 12.07-3.55c1.4-.47 3.11-1.14 4.81-1.04l-.06 2.03c1.16 1.54 1.22 5.69 1.51 7.97l-.03 1.58c-1.65 1.17-4.49 1.73-6.67 2.25l-5.08 1.46-10.91 3.12c.3 1.73.51 1.28.34 2.78l3.39.24c1.49-.52 10.47-3.31 12.15-3.24.9-.92 1.86-.88 3.19-1.24 1.37-.38 2.03-.66 3.48-.9l.97-.19c.31 1.77.6 3.13.44 4.82.93.77.8 3.38.75 4.68l-2.73.72c-1.42.57-4.04 1.39-5.61 1.34-1.09 1.12-4.06 1.58-5.98 2.13-2.16.61-4.28 1.27-6.41 1.68l-.03 2.4c.63.33.34-.66.6 1.06 1.35.48 2.25-.44 4.22-.43 1.16-1.21 10.97-3.61 13.25-4.04l3.55-1.06.67 4.18.74 5.42-4.83 1.24-.45.2-6.58 1.9-4.89 1.43-2.45.75-.03 1.55.8 2.15 1.41-.08c1.18-1.06 4.1-1.52 5.77-1.78l11.78-3.54.53 3.42.92 5.53-2.19.61-4.83 1.31-6.2 1.81c-1.58.72-3.72.83-4.83 1.92l1.18 3.17 4.04-.99c1.49-.85 4.19-1.67 5.84-1.56l7.69-2.22.23 2.17c.41 1.7.75 3.6.52 5.26.53.75.54 1.33.73 2.56.14.99.28 2.12.41 3.17.19 1.93.79 3.06.46 5.1.73.86.26-.05.62 1.52.1.48.18 1.29.25 1.81.16 1.28.36 2.7.5 4l.98 6.59 1.93 12.13c.2 2.02.89 3.98.54 6.03l1.88 5.55c1.02 1.09.91.83 1.23 2.12 9.08 5.7 8.37 3.02 18.58.64 1.13-.61 2.76-1.11 4.14-1.14 1.2 2.6 1.39 3.28 3.05 4.93 2.13 2.12 2.1 1.53 4.69 2.98l8.36.6-9.39 2.9-.21.02-5.1 1.45c-1.46.73-3.9 1.41-5.59 1.32-1.08 1.18-4.89 1.91-6.64 2.21-.8.5-10.27 3.08-11.21 3.06l-5.7 1.86c-1.3.58-3.24 1.24-4.61.98-.56.39.71.29-1.36.55-.48.06-.98.01-1.45-.13-2.16-.65-2.79-4.37-3.27-6.72-.62-1.35-1.04-2.73-1-4.3-.96-.81-3.58-10.94-4-12.97-.68-1.66-1.49-3.98-1.32-5.71-1.18-1.29-1.75-4.5-2.09-6.3l-.22-.26c-.26-.82-.39-1.43-.6-2.21-.06-.2-.2-.77-.27-.94-.76-1.85-.08-.34-.69-1.09zm92.3-127.63c.85-3.86 2.43-4.78 5.61-6.53 1.35-.02 2.55-.29 4.02-.08.56.08 1.07.21 1.57.45 1.46.69.6.22.87.68 2.3 1.03 3.33 2.46 4.08 5.43.49 2.96-.93 4.85-2.34 5.99-2.63 2.14-2.54 1.26-2.5 5.66.17 7.95-5.48 4.64-6.02 3.79-.91-1.43-.5-3.75-.46-5.62.08-3.72-.7-1.49-1.92-3.84-1.84-.38-3.51-2.88-2.91-5.93zm49.03 12.93.06.28c2.34-.04 3.08 1.7 2.9 4.08 1.09 1.44.38 21.83.38 25.4-.01 4.59-.57 22.86.28 25.92.82-.68.56-.61 1.55-1.15.4-1.14.36-1.09 1.47-1.5.89-1.56 2.67-3.29 4.4-4.22l.05-1.58-.03-6.28.02-5.77-.01-6.32.01-5.82-.01-6.24v-5.7l.01-6.38c.02-2.73-.11-6.51-1.99-7.57-2.05-.06.33-1.37-1.12.52 1.49.62 2.57 1.08 0 0 1.72 3.42.64 2.06-.71 3.25-.06.05-.14.14-.21.19l-.78.71c-.05-.08-.19.21-.31.26l-1.09-.97c-1.61-1.53-1.47-.7-1.72-2.23l-4.7-.23c-1.64.11-4.58-.07-5.33 1.03 1.67 0 5.85-.62 6.88.32zM88.02 145.22l1.28.96c.51.52.6.62 1.23 1.19.99.9 1.78 1.73 2.41 2.75.84.84.59.48 1.14 1.53l2.47 2.13c.84.76 1.91 1.76 2.31 2.77 1.49 1.16 1.3.82 2.36 2.45l-13.91.18-.03-14.84c.86.56.44.34.74.88zm121.25-80.19c-.89 1.35-1.74 1.53-3.26 2.19-.21.46-.03.2-.75.78-.4.32-.54.41-.94.69-.96.67-1.27.87-2.3 1.15-1.07 1.69-2.07 1.76-3.58 3.02-1.76 1.47-9.23 6.86-9.82 8.48-2.09 1.02-2.23 2.04-4.32 3.18l-.64.71c-.73 1.29-3.69 3.86-5.12 5.07-.62.53.08.07-.8.54l-.14.27c-.97 1.95-2.69 2.64-3.93 4.46-2.19 2.13-9.46 11.65-10.04 13.77-1.15-.43-1.24-.49-2.27-1.12-1.18-.71-1.13-.53-1.93-1.47-1.26-.18-4.31-2.11-5.72-2.93-1.64-.96-4.57-2.05-5.79-2.75l-6.35-2.09c-.05-.14-.2-.12-.29-.19-.73.58-.78-.22-.14 1.13l2.67 3.79c.6.89 1.12 1.64 1.78 2.64 1.11 1.71 1.11 1.28 1.31 2.54 1.27.9.74.46 1.35 2.01.97.63 1.95 2.62 2.15 3.83 1.38.88 1.4 1.66 2.16 3.1.34.65.63.98.92 1.5.9 1.55.49.45.6 1.66 1.18 1.11 2.81 4.37 3.51 5.99.75 1 3.4 5.9 4.52 8.35.2.45.36.82.44 1.07.56-.48 1.13-1.33 1.72-2.35 1.44-2.51 2.92-6.03 4.34-7.4.53-1.72.7-1.42 1.46-2.77.31-.54.3-.75.73-1.28.71-.89.27-.36.94-.8.17-1.19-.79.05.56-1.16l8.27-12.07c.17-1.31.53-1.25 1.39-2.48.8-1.13.52-1.15 1.59-1.89.6-1.28.32-.89 1.43-1.64.19-1.32 1.07-1.88 1.95-3.1l6.87-8.56c.27-.4.67-1.09.89-1.35.85-.98.12-.28 1.05-.79.22-.81-.14-.05.6-1.16.2-.3.48-.65.69-.91.59-.73 1.27-1.37 1.65-1.83.5-.84.01-.16.75-1 .14-.17.46-.46.76-.82.63-.74.81-1.13 1.81-1.77.14-.93.87-1.77 1.65-2.05.63-.94 1.31-1.89 2.02-2.75.83-.99 1.35-1.5 2.2-1.96.27-1.03.22-1.41 1.39-1.71.68-1.1 1.47-2.34 2.32-3.24.96-1.02 1.73-1.88 2.44-2.49.15-.4-.47-.57.44-.29.69-1.36 3.94-5.31 5.26-6.11l-.04.1c.89-1.85.92-1.16.05-1.46-.17.19-9.99 5.62-10.46 5.72zm-33.16 62.03.01 5.53v9.66l-.29 12.37c-.09.94-.04 1.19-.38 1.95-.61 1.38-.27.48-.77.94-2.13 1.99-10.96 1.14-14.8 1.13-5.34-.01-10.69 0-16.04-.01-1.87 0-5.03.07-8.67.13l40.94-31.7zm-42.58 31.73c-3.28.05-6.82.08-10.1.06l10.1-.06zm-11.39.05c-4.6-.06-8.51-.25-10.16-.72-.54-.94-1.31-1.44-2.17-3.14-.66-1.29-1.3-2.7-1.16-4.24-.34-.51-.02.34-.46-.93-.03-.11-.22-.81-.24-.95-.13-.72-.16-1.62-.22-2.35-.04-2.63-.9-5.2-1.33-7.19l-1.23-.78c-3.5.56-7.83 1.92-11.44 1.27-1.57-.29-3.5-1.07-4.62-1.85-1.8-1.27-1.48-2.14-1.64-4.71l-.01-6.45.09-5.77V78.68l.01-5.76V61.05l-.01-6.48.01-5.65v-6.37l-.01-5.51.01-6.54c.3-2.84.8-4.78 3.64-4.51 1.39-.81 13.13-.44 14.54-.42h-.4l17.73.16c-.56 1.42-.34 3.64-.11 5.36l.43 1.23c3.71 1.81 7.7 1.18 12.45 1.21 6.29.03 4.75-2.86 5.14-7.93l12.89-.03h-.4l10.02-.01.01.01 9.28.23c-1.04-.95-5.21-.33-6.88-.33.74-1.09 3.68-.91 5.33-1.02l4.7.22c.25 1.54.1.71 1.72 2.24l1.08.97c.13-.06.27-.35.32-.26l.78-.71c.06-.06.14-.14.21-.2 1.35-1.19 2.42.18.7-3.24 2.58 1.08 1.5.62 0 0 1.46-1.89-.93-.58 1.12-.52-1.1-3.37-5.16-4.73-9.85-5.39l-6.16.04-5.82-.06-6.29.05-5.69-.03c-1.75-.04-1.6.31-2.25-.91-.26-1.55-.08-3.84-.41-5.22-.43-1.79-1.09-2.98-1.44-4.33-.07-.08-.18-.18-.22-.23-.06-.05-.17-.16-.23-.23l-1.99-2.68c-2.02-.59-3.28-2.56-7.38-3.32-3.24-.3-5.98 0-8.59 1.33-3.16 1.6-3.94 1.64-7.79 2.05-.96.24-4.05.69-5.68.44-.77.58.17.12-1.16.46-.22.06-1.2.21-1.49.25-.91.13-1.61.23-2.53.35l-8.64 1.27-10.28 1.62-5.9.95-6.64.91-6.54.93-5.66.98c-1.6.25-2.31.58-3.89.36l-13.07 2.17c-3.13.55-4.59 1.6-6.53 2.06-.56 1.34-.71 1.51-2.05 2.1-.32 1.27-1.32 2.91-1.8 4.6l.16 5.32 1.07 8.4-9.56 2.73-6.85 1.97L9.6 45.26c-2.6.62-3.68 1.45-5.73 2.4l-1.52 1.32c-.53 1-.91 1.42-1.4 2.46-.41.89-.57 1.7-.95 2.63l.29 5.69 2.08 6.74c.78 2.23 3.26 10.4 3.25 12.22 1.19.97 1.55 4.08 1.97 5.78l1.55 5.75 3.58 12.12 2.06 6.7c.48 1.75.97 3.29 1.48 5.1.28.97.47 1.57.73 2.52.34 1.27.39 1.77 1.06 2.62l-.1.99 1.98 6.47 1.71 6.38 1.83 6.63c.62.87 1.08 2.96 1.04 4.21 1.07 1.1 2 5.41 2.33 7.35.57.72 2.94 9.35 2.88 10.65.66.66.14-.33.74 1.31.19.52.35 1.38.5 1.94.35 1.31.77 2.29.97 3.72l1.78 5.93c2.07 5.54 1 7.34 5.35 11.57.48.46.29.19.67.69l-.17-.05c2.38.99 3.06 1.55 6.04 1.9l5.41-.78 12.05-3.59c1.69-.57 3.95-1.53 5.78-1.36 1.14-1.07 6.72-2.35 8.02-2.57l11-3.28 5.84-1.59 11.94-3.63 5.91-1.64 6.01-1.68 7.03-2.13 5.61-.12 5.22.01h18.85l5.62-.01c5.87-.06 12.8.77 17.93-1.34 3.23-2.13 5.63-3.97 5.92-9.11l.11-5.26.01-5.84-.01-6.13-.03-5.68.03-6.51-.01-5.76v-2.07c0-.42.05-1.62-.06-1.95-.4-1.2.43-.39-.83-.93-.19 1.26.2.23-.7 1.58-1.95 2.94-5.58 6.59-6.14 9.43l-53.97 31.78zm11.39-.05-.12.02.12-.02zM31.45 140.5l-.05-1.51c-.54-1.53-1.25-3.79-1.25-5.48-1.08-1.05-1.91-5.14-2.24-6.86-.57-.96-2.12-6.9-2.31-8.12-.58-1.15-.79-1.88-.72-3.23-.91-1.1-1.7-4.82-2.23-6.44-.75-2.45-3.11-9.65-2.99-11.58-.73-.82-.87-1.8-1.19-2.97-.41-1.5-.75-2.18-.98-3.86l-1.75-5.83-3.55-11.97-1.51-5.57c-.59-1.1-2.88-8.87-2.94-10.34-.11-2.55.82-3.11 2.78-3.75 1.84-.61 3.35-1.1 5.3-1.51l5.94-1.71 12.08-3.55c1.39-.47 3.11-1.15 4.81-1.04l-.06 2.03c1.16 1.53 1.21 5.69 1.51 7.97l-.04 1.58c-1.65 1.17-4.48 1.72-6.66 2.25l-5.09 1.45-10.9 3.13c.29 1.73.51 1.27.34 2.77l3.39.25c1.48-.53 10.47-3.31 12.15-3.24.9-.92 1.85-.88 3.19-1.25 1.37-.37 2.02-.65 3.48-.89l.97-.19c.31 1.76.6 3.13.44 4.82.92.77.8 3.38.74 4.68l-2.73.71c-1.42.58-4.03 1.4-5.61 1.34-1.08 1.12-4.05 1.58-5.98 2.13-2.15.62-4.27 1.27-6.4 1.69l-.03 2.4c.63.33.34-.67.59 1.05 1.36.48 2.26-.44 4.23-.42 1.15-1.22 10.97-3.62 13.25-4.05l3.55-1.05.67 4.18.73 5.42-4.82 1.24-.45.2-6.58 1.9-4.9 1.42-2.44.76-.04 1.54.81 2.15 1.41-.07c1.17-1.07 4.1-1.52 5.77-1.79l11.78-3.53.52 3.42.93 5.52-2.2.61-4.83 1.31-6.2 1.82c-1.57.72-3.71.83-4.82 1.92l1.18 3.16 4.04-.98c1.49-.85 4.19-1.67 5.84-1.57l7.68-2.21.24 2.16c.41 1.71.74 3.61.52 5.27.53.74.54 1.33.72 2.56.15.99.29 2.11.42 3.17.18 1.93.78 3.05.46 5.1.72.86.26-.06.61 1.51.11.48.19 1.29.25 1.81.17 1.28.37 2.71.5 4.01l.99 6.58 1.92 12.14c.21 2.01.9 3.98.55 6.03l1.88 5.55c1.01 1.08.91.83 1.22 2.11 9.09 5.71 8.38 3.03 18.58.64 1.14-.6 2.76-1.1 4.15-1.13 1.2 2.6 1.39 3.28 3.05 4.93 2.13 2.11 2.1 1.53 4.69 2.98l8.36.6-9.39 2.9-.21.02-5.1 1.44c-1.46.74-3.9 1.42-5.6 1.33-1.07 1.18-4.89 1.91-6.63 2.2-.8.5-10.27 3.09-11.22 3.07l-5.69 1.86c-1.31.58-3.25 1.24-4.61.98-.57.39.71.29-1.36.55-.48.06-.98 0-1.45-.14-2.16-.64-2.8-4.36-3.27-6.71-.63-1.36-1.04-2.73-1-4.3-.97-.81-3.58-10.95-4.01-12.97-.67-1.66-1.48-3.99-1.32-5.72-1.17-1.28-1.74-4.49-2.09-6.29l-.21-.26c-.27-.82-.4-1.44-.61-2.21-.05-.21-.19-.78-.26-.95-.77-1.84-.09-.34-.69-1.08zm92.29-127.63c.86-3.87 2.44-4.78 5.62-6.53 1.35-.02 2.55-.3 4.02-.08.56.08 1.06.21 1.57.45 1.45.69.6.22.87.68 2.29 1.02 3.33 2.46 4.08 5.43.49 2.96-.93 4.84-2.34 5.99-2.63 2.13-2.54 1.26-2.5 5.66.17 7.95-5.48 4.64-6.02 3.79-.91-1.43-.5-3.75-.46-5.63.08-3.72-.7-1.48-1.92-3.83-1.85-.39-3.52-2.89-2.92-5.93zm49.04 12.93.06.28c2.34-.04 3.08 1.7 2.9 4.08 1.08 1.44.38 21.83.38 25.39-.01 4.6-.57 22.86.27 25.92.83-.68.56-.6 1.56-1.14.39-1.15.35-1.1 1.47-1.51.88-1.56 2.67-3.28 4.4-4.21l.05-1.58-.04-6.29.03-5.77-.02-6.31.01-5.82v-6.25l-.01-5.7.02-6.37c.02-2.74-.11-6.51-2-7.57-2.05-.06.34-1.37-1.12.52 1.5.62 2.58 1.08 0 0 1.72 3.42.65 2.05-.7 3.24-.07.06-.15.14-.21.2l-.78.71c-.05-.09-.19.2-.32.26l-1.08-.97c-1.62-1.53-1.47-.7-1.72-2.24l-4.7-.22c-1.65.11-4.59-.07-5.33 1.02 1.67 0 5.84-.62 6.88.33z" class="fil0"/></g></svg>