<svg xmlns="http://www.w3.org/2000/svg" xml:space="preserve" width="240" height="152" style="shape-rendering:geometricPrecision;text-rendering:geometricPrecision;image-rendering:optimizeQuality;fill-rule:evenodd;clip-rule:evenodd"><path d="M121.04 132.66c3.38.31 4.42-1.71 9.69-4.28 1.48-.72 3.26-1.57 4.71-2.4 1.58-.9 2.57-1.67 4.64-2.5 6.97-2.79 13.15-6.15 20.58-7.98 2.01-.49 3.7-.67 5.61-1.15 4.31-1.1 14.23-3.07 18.37-3.07 3.17 0 3.05-.75 6.21-.75 4.18-.01 9.88-.29 13.61.57 1.83.42 4.83.33 6.73.02l.07-2.5c-.56-1.13-.8-3.18-1.1-4.6-.44-2.13-.67-3.1-.92-5.2-.34-2.79-2.42-7.84-1.84-10.29-1.45-1.45-1.86-5.48-2.24-7.54-.46-2.5-1.32-5.3-1.86-7.72-1.09-4.8-2.65-10.03-3.38-14.28l-6.6-31.81c-.36-1.18-.9-4.21-1.4-6.2-.63-2.46-1.08-4.05-1.53-6.53-.54-3.01-2.91-10.34-2.53-12.82-3.96-1.47-19.16-.58-24.67-.58-7.28 0-4.86-.34-11.59.78-1.8.29-3.69.68-5.36 1.09-5.99 1.47-16.85 6.23-21.77 9.37-3.37 2.16-3.31 5.24-3.27 9.24.08 9.71.5 106.9-.16 111.13zM37.26 25.35l.15.1 1.92-7.46c-.25-.11-.42-.34-.47-.24-.06.09-.25-.16-.32-.2-1.97-1.12-1.45-.79-3.07-.97-15.41-1.68-10.88-6.73-14.65 10.58-1.31 2.51-3.66 20.99-4.67 25.22-.9 3.77-1.58 8.33-2.35 12.2-.28 1.36-2.01 11.4-2.73 12.17-.04 1.12-.49 6.02-1.25 6.88-1.01 8.09-4.51 18.52-5.6 29.41-.55 5.5-4.02 11.7-3.05 17.46 1.26-.45 24.61 4.14 30.19 5.05 1.19.2 2.19.52 3.95.85 1.24.24 3.34.49 4.77.73l12.29 2.62c2.96.56 13.62 1.48 16.87 2.79.11.04.29.33.37.22.07-.11.25.14.35.24l-.21-.28c2.22.28 3.58.53 5.48.77l28.98 5.4c.98.18 1.71.4 2.45.57 1.94.45 3.11.71 5.14.98 3.92.53 7.23.55 11.66.56 1.32 0 1.69-.01 2.92-.24l28.86-5.44c10.32-2.67 32.45-5.02 41.94-7.57 3.4-.9 6.92-1.22 10.44-1.79l10.34-2.03c4.51-1 16.75-2.86 20.09-4.05l.69-.28c.51-4.78-.25-4.08-1.07-7.37-.56-2.24-.74-5.16-1.27-7.25-1.29-5.12-1.56-9.48-2.7-14.75l-14.05-71.76c-.7-3.41-2.05-11.41-3.34-14l-5.48 1.05c-3.11.81-6.38.72-8.5 1.81-.12.06-.24.14-.34.19l.66 9.13c.8.45 1.32 4.83 1.39 5.7 1.86 2.34 4.05 17.94 5.02 21.68l.27 2.99c.74.74 1 2.71 1.34 4.63.85 4.78 2.7 7.97 3.44 14.17l.6 1.42c.06.19.38 1.54.41 1.7.23 1.2.46 2.56.68 3.46.55 2.29.95 4.53 1.47 6.58.78 3.07 2.8 10.5 2.91 13.36.07.1.13.24.17.32.03.07.11.22.15.32l1.61 7.83c.44 2.46 1.36 5.57 1.61 7.91-2.8.14-4.23-.71-6.93-.71-3.24.02-3.97-.65-7.15-.62-2.54.02-5.09-.01-7.62.01l-32.58 5.41c-3.9.98-8.46 1.85-12.31 3.02l-3.69 1.12c-.1.04-.22.09-.31.13l-7.27 2.56c-10.25 3.78-11.18 5.09-18.72 8.09-3.49 1.39-5.98 3.02-8.76 2.21l-10.36-4.7c-2.98-1.56-3.82-1.5-5.41-2.28-4.75-2.31-16.9-6.8-22.29-7.9-4.53-.93-8.54-2.31-12.29-2.98-2.5-.45-3.62-.92-6.14-1.47l-16.58-2.6c-6.82.06-10.73-1.31-18.55-.43-.91.78-5.37.43-6.33.25-.36.97.96 1.2-3.91.86l1.63-9.91c.69-3.4 1.45-6.41 2.3-9.89l3.43-14.3c.34-1.37.34-4.07 1.45-4.6-.32-1.68 3.12-15.14 3.71-15.85.22-3.08 5.4-29.14 7.06-30.84-.24-2.27 1.03-5.34 1.16-7.95zm10.98-3.86c-1 3.93-1.61 7.57-2.56 11.63l-4.88 22.7c-.41 1.9-1.88 10.03-2.8 11.41 0 3.64-3.28 15.06-4.57 20.15l-1.09 5.45c-.02.08-.09.24-.11.3l-.25.54c-.6 5.02-3.29 12.42-2.7 17.59l20.04-.62 30.53 5.01c6.29 1.74 14.44 5.05 19.9 7.75l16.06 8.5c1.09.65.83.99 2.62.58.54-5.65.09-90.24.09-98.45 0-22.38 1.86-18.48-7.18-24.08-3.32-2.06-9.15-4.38-12.8-5.55-9.17-2.91-12.31-3.35-21.1-3.35-7.83 0-16.89-.41-24.56.07-1.02 2.83-3.3 16.37-4.64 20.37z" style="fill:#2d4eb1"/></svg>