<svg xmlns="http://www.w3.org/2000/svg" xml:space="preserve" width="178" height="182" style="shape-rendering:geometricPrecision;text-rendering:geometricPrecision;image-rendering:optimizeQuality;fill-rule:evenodd;clip-rule:evenodd"><path d="m36.66 152-1.7-.6.1-.64 1.63.53c26.87 4.81 42.62 6.67 70.27 5.78 8.8-.28 8.89-5.95 12.35-12.91l24.67-51.58c2.55-5.43 6.73-12.74 8.25-17.78l7.61 1.56-15.33 34.65c-1.55 3.43-3.61 7.81-5.28 11.52-6.86 15.26-13.67 31.71-20.85 46.05-19.1-1.51-44.76-5.11-63.21-10.35-6.64-1.89-12.42-4.2-18.51-6.23zM126 183.2h-.38c-.06-.07-.12-.16-.18-.27-.07-.12-.27.17-.4.27h-6.48c-1.99-.86-32.25-4.06-37.77-4.95-20.3-3.28-47.43-9.79-63.8-21.02C1.2 146.4 2.86 139.3-.22 132.4v-5.97c1.64-3.84-.64-2.05 4.52-12.16 1.82-3.57 3.72-6.85 5.75-10.98l4.18-8.01c.54-1 .81-1.63 1.54-3.02 1.93-3.73 4.15-7.94 5.95-11.43L50.4 25.21c1.87-3.64 3.56-8.45 6.87-9.87 1.81-.78 27.19-.04 32.38-.46 9.59-.77 19.56-2.29 28.65-4.77 4.59-1.25 8.34-2.4 12.67-4.04 2.84-1.07 10.15-4.76 12.15-4.87.11.11.34.03.4.23.38 1.3 1.72-1.96 1.72 5.66h2.3l-.22 14.19c-.7 4.29-.2 2.72.9 3.51-.03 3.09-2.48 6.09-3.37 9.31 11.93 1.74 20.61 0 22.02 6.91.97 4.79-6.44 15.91-7.88 20.54 2.4.69 2.59.71 5.31.99 10.21 1.04 9.15-.91 13.49 5.97v3.18c-1.67 2.54-4.01 8.61-5.44 11.8-5.92 13.17-36.28 79.29-36.37 81.91-2.29 2.08-3.59 6.62-4.91 9.64-.69 1.58-1.24 3.33-2.15 4.79l-2.7 2.56c-.09.06-.11.55-.22.81zm-97.33-49.18-1.81-.64c1.65-.77.79-.73 2.47.12 10.32-.87 23.81 3.27 47.01-.11 7.01-1.02 13.36-2.59 19.54-5.26 7.16-3.08 10.42-5.65 13.07-11.73 1.91-4.36 28.73-67.1 30.24-69.06l7.26 1.39c4.06 1.03 1.17-.27 2.33 1.44-2.04 1.1-42.86 91.99-45.31 92.76-26.83.2-50.93-1.3-74.8-8.91zm1.64-15.08-11.32-1.34c.15-2.12 5.26-11.21 6.47-13.33l.17.27c1.12-3.51 14.62-28.91 17.36-34.11l12.99-25.07c1.1-2.04 2.54-6.1 4.55-7.78.34-2.78 2.51-5.58 3.62-8.26 32.48 1.22 41.95-1.29 71.05-9.46-1.47 5-5.38 12.96-7.83 18.44l-15.73 36.26c-.79 1.83-1.14 2.89-1.87 4.47L96.2 110.5c-5.29 11.78-53.09 10.7-65.89 8.44z" style="fill:#2d4eb1"/></svg>