<svg xmlns="http://www.w3.org/2000/svg" xml:space="preserve" style="shape-rendering:geometricPrecision;text-rendering:geometricPrecision;image-rendering:optimizeQuality;fill-rule:evenodd;clip-rule:evenodd" viewBox="0 0 170.44 101.14"><defs><style>.fil12{fill:#270b07}.fil5{fill:#ed8423}.fil0{fill:#f79a32}</style></defs><g id="Layer_x0020_1"><g id="_2666079239408"><path d="m99.34 27.14-4.52 6.33c-2.12 4.24-.78 3.17.69 6.72 2.94-1.32-.32.71 1.2-.91.59-.64.38-.59.7-1.07 6.08-9.34 24.64-8.59 29.07.44 3.38 6.91-1 13.01-3.87 17.65-4.15 6.69-3.74 10.52-3.23 18.77-1.58-1.05-.66-.36-1.47-2.16-.92-2.03.31-1.7-1.37-1.75 1.18 1.39 2.49 8.91 5.95 12.14 2.4-.79 8.66 3.38 16.77-2.06 3.5-2.35 7.58-7.46 8.6-13.22.21.88-.04.04.81.51-.03-6.64 1.34-12.1 1.14-18.57-.2-6.46-3.27-12.63-3.27-16.18-2.32-1.4-3.98-8.3-11.79-12.08 1.98 3.87 4.09 1.94 6.59 12.29.73 3.02.32 6.86-.25 9.49-.72 3.25-1.01 4.85-4.67 4.83-1.7-4.25-1.18-7.84-3.64-12.58-8.43-16.29-30.31-4.94-33.83-4.94-.3-1.72-.05-2.19.39-3.65z" class="fil0"/><path d="M29.88 2.52c-.8 1.14-2.38 1.78-3.58 2.55-1.27.82-2.68 1.77-3.92 2.83L0 24.29c2.79 3.69 10.23 2.97 15.02 1.8 2.44-.6 5.02-1.54 6.84-2.58 1.37-.8 1.75-1.18 2.79-2.24l2.55-2.63c-1.45 5.07-3.74 1.1-2.11 13.45.33 2.43.91 3.91 2.5 5.73 1.75 1.99 3.12 3.55 4.82 4 2.16-2.8.1 2.39.2-.73l-.46-1.79c-4.15-1.26-1.05 1.57-3.49-2.73-.93-1.62-2.78-1.52-1.19-1.65l.48-.57c.99-.41 2.21.18 2.96.58l-.73-6.98c1.14.55 1.44 3.08 2.68-.35 1.46-4.06-1.66-3.14-2.13-3.27 2.36-1.71.6-.39 1.63-2.28l-2.17-.56c.71-3.4 1.43-1.98 3.1-5.39 2.74-5.58 3.2-11.7 10.36-13.01-.84.9-1.13.95-1.73 1.51-.47.45-1.22 1.27-1.58 1.68-2.2 2.53-3.39 4.85-4.31 7.88-.49 1.6-1.21 2.93-1.87 4.59 4.01 2.18 7.36 1.06 11.33-.17 9.42-2.9 8.55-.96 13.26-.38-.4-2.7-1.01-5.22-2.01-7.4l-3.37-4.94c-.07-.29-.24-.32-.34-.49 3.32 1.54 5.18 3.4 6.04 7.8.75-1.02.66.74.85-2.33.2-3.09.13-.45-.31-1.54-.28-.68-.68-.93-1.25-1.15l1.86-2.19C56.51 3.18 51.75.54 46.47.11c-3.05-.26-5.76-.05-8.54.49-2.62.51-5.68 1.98-8.05 1.92z" style="fill:#f69a35"/><path d="M65.59 48.96c.11-.11.22-.48.27-.38.04.09.2-.3.26-.37.06-.08.18-.27.25-.35 1.95-2.37-1.36.7.75-.82 3.09-2.23 10.08.93 13.44-6.61l1.22-2.38c1.3 2.02 1.22 3.11 3.83 6.97 8.37 12.38 6.18 13.72 9.25 18.58 1.02 1.6.95 1.54.69 3.87-.96-.48-1.18-.43-2.55-.54l.6 1.23c2.24.37 1.52.59 3.58-.15.66-5.24-1.11-4.17-1.55-8.02-.93-8.2 6.1-9.93-4.51-24.92-2.52-3.56-5.81-7.76-7.95-12.75-2.11-4.91-4.07-10.94-7.31-13.81.31 2.12.21.99.63 1.72l2.32 2.71-1.75 2.19c-1.55-4.02-9.96-7.69-10.45-8.25-2.99.21-.95-.15-1.77.94 1.29 1.73 4.01 3.65 6.36 4.76-1.01 13.94.38 17.95-6.37 28.55 9.68-3.24 8.14-.82 10.18-6.2.57 9.85-13.53 1.61-11.96 13.24l2.54.79z" class="fil0"/><path d="M35.36 40.34c1.95-.89 3.05-1.53 5.5-.17l.31 2.58c-2.75 1.67-5.59 1.77-5.81-2.41zm11.96-2.07c1.88-4.52 8.53-3.03 6.03 1.09-.62 1.03-4.43 3-6.03-1.09zm11.75-25.1.91 1.58.07-1.35c.09.11.23.26.29.33L61.85 15s1.45 1.37 1.54 1.52c1.05 1.71.78 3.88-.13 5.42-1.71 2.87-21.23 14.51-28.22 1.18l3.43-.26c.69-.9.41.05-.19-.71-2.99.47-2.89.73-5.92-.1-1.03 1.89.73.57-1.63 2.28.47.13 3.59-.79 2.13 3.27-1.24 3.43-1.54.9-2.68.35l.73 6.98c-.75-.4-1.97-.99-2.96-.58l-.48.57c-1.59.13.26.03 1.19 1.65 2.44 4.3-.66 1.47 3.49 2.73l.46 1.79c-.1 3.12 1.96-2.07-.2.73 2.07 3.1 7.49 3.19 11.03 5.13.69-2.42.72 2.36 1.22-2.72.1-.96-.17-1.86.27-3.2 1.43 1.14.66.09 1.18 2.22 2.6.04 3.99.31 6.11.59.6-1.44.37-2.04 2.28-2.78 1.23-.35 2.46-2.45 3.77-3.45 1.65-1.27 3.09-2.19 4.49-3.3 4.19-3.31 5.22-8.5 6.71-9.6.93-1.46.86-9.12.79-11.53-2.32-1.83-8.07-6.36-10.04-7.22l-1.86 2.19c.57.22.97.47 1.25 1.15.44 1.09.51-1.55.31 1.54-.19 3.07-.1 1.31-.85 2.33z" style="fill:#f59533"/><path d="M148.67 68.53c-.85-.47-.6.37-.81-.51-1.02 5.76-5.1 10.87-8.6 13.22-8.11 5.44-14.37 1.27-16.77 2.06 10.88 13.88 40.51 13.09 46.75-2.73 3.04-7.7-.34-12.38-3.09-17.41-.78 1.21-.18-.34-.43 1.32l.12 3.31c-.11 13.2-17.51 14.3-17.17.74z" style="fill:#fbecdb"/><path d="M99.34 27.14c-.44 1.46-.69 1.93-.39 3.65 3.52 0 25.4-11.35 33.83 4.94 2.46 4.74 1.94 8.33 3.64 12.58 3.66.02 3.95-1.58 4.67-4.83.57-2.63.98-6.47.25-9.49-2.5-10.35-4.61-8.42-6.59-12.29-4.44-5.88-24.88-6.13-34.27 3.53l-1.14 1.91z" style="fill:#fcb22c"/><path d="m95.51 40.19 2 4.57c2.29-2.28 1.49-2.03 4.21-3.85 6.44-4.3 15.15-4.79 17.52.65 3.21 7.35-4.51 12.15-2.7 29.6 1.68.05.45-.28 1.37 1.75.81 1.8-.11 1.11 1.47 2.16-.51-8.25-.92-12.08 3.23-18.77 2.87-4.64 7.25-10.74 3.87-17.65-4.43-9.03-22.99-9.78-29.07-.44-.32.48-.11.43-.7 1.07-1.52 1.62 1.74-.41-1.2.91z" class="fil5"/><path d="M39.04 98.49c3.23 2.05 34.03 3.67 43.07 1.86 1.99-.4 4.04-.94 6.31-1.24l4.94-.66c1.27-.48 1.01-.42 1.65-1.07-7.07-5.33-54.09-2.89-55.97 1.11z" style="fill:#dce4eb"/><path d="M90.55 60.98c-.58-4.96-3.23-4.32-6.26-6.79-3.47-2.84-3.41-4.33-3.87-9.64-3.46 4.44-5.4 2.86-10.94 4.31.66 1.8.75 1.5 1.69 2.86l1.53 2.33c.62.72 1.68 1.34 2.44 1.95l4.08 4.32c.57.75 1.19 1.41 1.77 2.18 1.65 2.17 1.62 3.86 2.67 5.54l3.44.63c.47-3.92-1.54-7.23-.3-9.79 2.58.48 1.28.94 3.75 2.1z" style="fill:#db732b"/><path d="m59.98 14.75.61 5.67c-4.1-.94-2.88-1.61-7.75.55-.12.05-.27.11-.39.17-.12.05-.26.12-.38.18-9.21 4.3-6.94 1.29-13.6 1.54l-3.43.26c6.99 13.33 26.51 1.69 28.22-1.18.91-1.54 1.18-3.71.13-5.42-.09-.15-1.54-1.52-1.54-1.52l-1.51-1.27c-.06-.07-.2-.22-.29-.33l-.07 1.35zM65.59 48.96c2.89 1.14 2.11.36 3.86-.65 3.23-1.87 8.49.13 10.99-4.8l-.02 1.04c.46 5.31.4 6.8 3.87 9.64 3.03 2.47 5.68 1.83 6.26 6.79.99 2.08 1.49 3.64 2.45 5.95 1.37.11 1.59.06 2.55.54.26-2.33.33-2.27-.69-3.87-3.07-4.86-.88-6.2-9.25-18.58-2.61-3.86-2.53-4.95-3.83-6.97l-1.22 2.38c-3.36 7.54-10.35 4.38-13.44 6.61-2.11 1.52 1.2-1.55-.75.82-.07.08-.19.27-.25.35-.06.07-.22.46-.26.37-.05-.1-.16.27-.27.38z" class="fil5"/><path d="M32.36 22.05c3.03.83 2.93.57 5.92.1.6.76.88-.19.19.71 6.66-.25 4.39 2.76 13.6-1.54.12-.06.26-.13.38-.18.12-.06.27-.12.39-.17 4.87-2.16 3.65-1.49 7.75-.55l-.61-5.67-.91-1.58c-.86-4.4-2.72-6.26-6.04-7.8.1.17.27.2.34.49l3.37 4.94c1 2.18 1.61 4.7 2.01 7.4-4.71-.58-3.84-2.52-13.26.38-3.97 1.23-7.32 2.35-11.33.17.66-1.66 1.38-2.99 1.87-4.59.92-3.03 2.11-5.35 4.31-7.88.36-.41 1.11-1.23 1.58-1.68.6-.56.89-.61 1.73-1.51-7.16 1.31-7.62 7.43-10.36 13.01-1.67 3.41-2.39 1.99-3.1 5.39l2.17.56z" style="fill:#c66518"/><path d="M54.5 41.06c-1.11 2.75-3.55 7.42-3.33 10.23 0 .02.04.12.04.14 0 .03.01.16.01.19L47.29 59c.6.43 1.07.96 1.59 1.57 6.09-5.45 6.18-17.68 7.71-20.59 1.45.61 1.3.16 1.54 2.19-1.13.72 1.24-.54-.94-.02l-.9 4.49c2.14-1.22 7.83-6.2 9.3-8.38 2.51-3.73 3.62-8.22 3.88-13.55-1.49 1.1-2.52 6.29-6.71 9.6-1.4 1.11-2.84 2.03-4.49 3.3-1.31 1-2.54 3.1-3.77 3.45z" style="fill:#fdecd4"/><path d="M64.84 7.82c.82-1.09-1.22-.73 1.77-.94.49.56 8.9 4.23 10.45 8.25l1.75-2.19-2.32-2.71c-.42-.73-.32.4-.63-1.72-1.1-1.28-1.33-1.61-2.26-2.76-.56-.7-.77-.83-1.31-1.48-1.41-1.7-.54-.03-1.11-1.72C68.38 2 68.42.2 64.13.56c-2.68.23-5.42 1.47-7.65 1.74 2.3 1.84 5.82 3.83 8.36 5.52z" style="fill:#fdb132"/><path d="M43.44 46.95c1.43 6.25.66 7.05.99 12.89l2.86-.84 3.93-7.38c0-.03-.01-.16-.01-.19 0-.02-.04-.12-.04-.14-.22-2.81 2.22-7.48 3.33-10.23-1.91.74-1.68 1.34-2.28 2.78-2.12-.28-3.51-.55-6.11-.59-.52-2.13.25-1.08-1.18-2.22-.44 1.34-.17 2.24-.27 3.2-.5 5.08-.53.3-1.22 2.72z" style="fill:#eba538"/><path d="M47.32 38.27c1.6 4.09 5.41 2.12 6.03 1.09 2.5-4.12-4.15-5.61-6.03-1.09zM35.36 40.34c.22 4.18 3.06 4.08 5.81 2.41l-.31-2.58c-2.45-1.36-3.55-.72-5.5.17z" class="fil12"/><path d="m61 45.99.66.09.17-.83c-.01-.04-.08-.21-.1-.26l-.29-.45c-.1-.19-.2-.32-.29-.47-1.02 1.98-2.06 1.12-4.07 3.49-1.34 1.58-.43-.01-1.09 1.94 4.43.48 3.77-.85 4.33-2.78.4-1.41-.32-1.24.68-.73z" style="fill:#d98639"/></g></g></svg>