<svg xmlns="http://www.w3.org/2000/svg" xml:space="preserve" width="311" height="317" style="shape-rendering:geometricPrecision;text-rendering:geometricPrecision;image-rendering:optimizeQuality;fill-rule:evenodd;clip-rule:evenodd" viewBox="0 0 93.26 94.97"><defs><style>.fil14{fill:#270b07}.fil11{fill:#db732b}.fil1{fill:#ed8423}</style></defs><g id="Layer_x0020_1"><g id="_1883868120064"><path d="M58.24 23.93c-.89.13-.11-.84-.46 2.42-.13 1.21-.38 1.78-.84 2.68-2.11 4.2-5.74 5.16-8.61 2.1-1.65-1.75-.86-2.8-1.02-5.5-1.45.84-2.08 1.81-2.78 3.19l-5.11 13.07c.92 1.16 1.7 1.63 2.94 2.65 1.88-.37 3.37-.57 3.34-2.43l-.79-.08c.01-2.55.3-3.67 3.07-3.16.63 1.17.31.42.77 1.85-.19 4.54-8.24 4.7-9.62 5.6-.95.62-.63-.29-.23.42 2.99.24 5.34 1.39 8.55 1.47l-2.1-.84c3.93-.1 10.83-1.22 13.66-2.69l-.69-.4c-.11-.05-.23-.11-.35-.16-.13-.05-.24-.09-.37-.13-.25-.09-.57-.11-1.06-.27l-2.25-2.54c-.17-1.15-.14-1.09-.06-2.28 1.46-1.14 3.57-2.84 6.37-1.29 2.06 1.14 2.76 2.93 2.46 5.59l-2.78 1.09c-.07-.11-.26.13-.37.21 5.4-.43 8.71-1.91 14.94-1.16-.86 1-1.64 1.49-2.52 2.36-2.62 2.61-4.7 4.73-6.65 8.19-3.38 5.98-2.55 7.97-3.28 12-.3 1.63-.7 2.12-1.09 3.81 3.08.08-.9-1.74 3.89-3.17 1.02-.31 1.43-.54 2.13-.98 3.49-2.19 3.95-2.99 5.99-5.62.56.56.07-.07.7.83l1.89 2.53c3.52 3.52 7.8 5.5 11.95 2.14-.8-1.26-.32-.47-1.1-1.21-.1-.09-.63-.56-.69-.63-.79-.88-.06.34-.55-.77-3.8-.48-9.09-4.95-10.25-8.09-2.71-7.36 3-12.48 3.7-13.71-1.05-2.87-2.46-4.96-3.53-7.42-1.26.19-.18-.11-.5.71-.54 1.6-1.11 3.15-2.6 3.13-2.63-.03-8.61-4.91-10.32-8.63 1.04-1.31.18-.04 1.27-1.74 2.21-2.96 4.12-16.36 3.91-20.97l-7.27 15.4c-.11.24-.47 1.09-.57 1.24-.61.92-.28.56-1.12 1.19z" style="fill:#f69a35"/><path d="m69.48 75.86.73 1.03c.02.02.09.12.11.14l.58.48c1.42 1.25 1.1 1.26 4.59 1.39 7.48.25 7.25-1.91 9.25-2.11l.79.05c.11 0 .28.02.41.07.53 2.6.04.66-.49 1.34-.72 2.66 1.09 2.49 2.84 9.52l3.58-.06c.16-2.3-.23-4.33-.05-6.57.2-2.38.66-4.08.39-6.56-.38-3.43-2.62-8.01-4.35-9.15-4.15 3.36-8.43 1.38-11.95-2.14l-1.89-2.53c-.63-.9-.14-.27-.7-.83-2.04 2.63-2.5 3.43-5.99 5.62-.7.44-1.11.67-2.13.98-4.79 1.43-.81 3.25-3.89 3.17l-2.02 5.24c-3-1.46-6.54-5.68-7.74-8.65-1.27-3.14-1.46-9.58-2.55-13.33 1.38 5.88-4.06 11.74.74 19.04 1.28 1.94 3.38 4.21 4.38 6.57 1.05 2.49 1.29 7.55 2.19 9.08l1.97.17c1.06-2.73.93-7.22.79-10.6l-3.12-1.75 6.38.35c-.57.45-.54.33-1.1.63l-1.29.77c.3 4.33-.52 6.63-.64 10.43 2.38.22 3.81.3 5.05-1.51 1.99-2.9 4.73-10.7 4.76-14.79l.37 4.51z" class="fil1"/><path d="m75.12 87.61-3.25-.12.25-4.54 5.06-.03c-.63 1.04-.52 1.21-.98 2.48-.35.97-.74 1.64-1.08 2.21zM46.28 25.06c-2.02-3.83-2.19-14.87-.23-19.15.97 2.22 1.85 5.36 3.09 7.81 3.02 5.97 1.89 2.99 4.49 6.8l-3.98 2.05c-1.33.87-2.13 1.92-3.37 2.49zm17.01 2.01c.43.86-.31 1.15.69-.11 3.86-4.84 3.89-22.11 5.16-25.13 2.97 3.94 5.02 18.07 5.76 24.04.84 6.83-.69 5.23-.25 7.79.01.07.12.38.13.32.01-.06.07.25.16.33.32-.82-.76-.52.5-.71 1.07 2.46 2.48 4.55 3.53 7.42-.7 1.23-6.41 6.35-3.7 13.71 1.16 3.14 6.45 7.61 10.25 8.09.49 1.11-.24-.11.55.77.06.07.59.54.69.63.78.74.3-.05 1.1 1.21 1.73 1.14 3.97 5.72 4.35 9.15.27 2.48-.19 4.18-.39 6.56-.18 2.24.21 4.27.05 6.57l-3.58.06c-1.75-7.03-3.56-6.86-2.84-9.52-3.37 3.26-8.78 4.8-14.02 3.77-.12-.03-.23-.05-.34-.07l-1.37-.22c-1.29-.25-.93-.17-2.11-.63l1.87-5.24-.37-4.51c-.03 4.09-2.77 11.89-4.76 14.79-1.24 1.81-2.67 1.73-5.05 1.51.12-3.8.94-6.1.64-10.43l1.29-.77c.56-.3.53-.18 1.1-.63l-6.38-.35 3.12 1.75c.14 3.38.27 7.87-.79 10.6l-1.97-.17c-.9-1.53-1.14-6.59-2.19-9.08-1-2.36-3.1-4.63-4.38-6.57-4.8-7.3.64-13.16-.74-19.04l-.4-1.66 9.02-1.68c.08.09.14.25.18.3 1.34 1.83 1.74-.47 1.52-1.83-4.37-.72.93-.16-4.66 1.24-1.52.38-3.46.81-5.1 1.02-4.19.53-7.26-.21-10.95-.96.36-1.27.64-1.39.29-2.65-.4-.71-.72.2.23-.42 1.38-.9 9.43-1.06 9.62-5.6-.93-.41-.72.16-1.09-.51l-.35 2.18-1.61-.28c.03 1.86-1.46 2.06-3.34 2.43-1.24-1.02-2.02-1.49-2.94-2.65l5.11-13.07c.7-1.38 1.33-2.35 2.78-3.19.8-1.92 6.45-5.22 10.28-4.37l1 .4c.05-.09.19.11.28.17l-.63 2.1c.84-.63.51-.27 1.12-1.19.1-.15.46-1 .57-1.24L67.2 6.1c.21 4.61-1.7 18.01-3.91 20.97zM43.67 28.6c-3.33-6-1.16-17.78 1.25-23.68-.6 4.05-.93 8.58-.63 12.79.56 8.14 2.85 8.35-.62 10.89zm-3.57 7.96c.11 2.32-.93 3.34-1.78 5.33.45.92.01.17.52.88l1.84 2.22c-3.32.56-4.61-.25-6.06.02-.1.02-.26.09-.34.11-.07.02-.26.25-.31.15-.59-1.07-2.91 4.87 9.03 5.94.84.07 1.64.04 2.42.09 5.8.41 2.01 6.38 1.61 12.89-8.24-2.35-14.69-14.82-18.48-15.18l1.63 1.54c2.72 2.15 2.48 2.38 4.69 5.21 7.01 6.61 1.32 3.12 12.09 9.5.35 2.08.6 3.72 1.43 5.49.85 1.78 2.05 3 2.4 4.5 1.42.69.92.4 1.68 1.87 2.3 2.53 2.73 7.49 2.63 11.36-8.75-.58-15.82 1.04-24.53-4.29-1-.62-2.02-1.08-2.87-1.93-1.23-1.23-1.08-2.13-2.67-1.67.81 1.51 3.28 3.41 5.06 4.55 6.56 4.21 16.86 4.37 24.48 4.08.62.8.71-1.2.52 1.34-.16 2.63-.3 2.08 2.81 2.09 4.54.01 3.18-2.06 6.08-3.95.36-1.86.69-1.46 3.32-3.1 1.76-1.1 1.98-2.06 3.86-2.85.2 3.17-.09 4.64-1.19 7.12-1.04 3.58 1 3.72 4.24.44l1.01-.93 2.73-5.78c.83-1.08 4.83-2.58 6.37-2.9 3.45 5.17 1.55 3.79 3.29 7.5.31.66.32.58.6 1.15.7 1.41.34.38.59 1.43.95.56.5.17 1.34 1.02.79.8.46.4 1.01 1.33l2.05-.39c.31-1.94-.61-6.32-.57-8.98.05-3.18.62-6.37.29-9.55-.45-4.42-4.27-11.11-7.4-11.39-1.11-2.15-10.55-3.58-9.91-12.14.68-9.27 6.04-6.37 3.39-11.79-.77-1.56-3.38-5.9-3.29-7.29.54-7.93-.99-16.57-3.17-24.25-3.95-13.94-5.05-5.3-8.63 3.35-4.85 11.71-3.9 9.94-9.26 9.75-1.62-2.69-3.58-3.84-5.47-8.94-.75-2.06-2.27-10.08-2.9-11.03-1.28.4-.77-.62-2.3 3.79-1.58 4.58-2.47 9.7-2.74 14.57-.56 9.95 3.38 7.01.76 14-.51 1.35-.78 3.03-1.9 3.72z" style="fill:#954917"/><path d="m59.91 44.5-.9.18c-2.83 1.47-9.73 2.59-13.66 2.69l2.1.84c-3.21-.08-5.56-1.23-8.55-1.47.35 1.26.07 1.38-.29 2.65 3.69.75 6.76 1.49 10.95.96 1.64-.21 3.58-.64 5.1-1.02 5.59-1.4.29-1.96 4.66-1.24.22 1.36-.18 3.66-1.52 1.83-.04-.05-.1-.21-.18-.3L48.6 51.3l.4 1.66c1.09 3.75 1.28 10.19 2.55 13.33 1.2 2.97 4.74 7.19 7.74 8.65l2.02-5.24c.39-1.69.79-2.18 1.09-3.81.73-4.03-.1-6.02 3.28-12 1.95-3.46 4.03-5.58 6.65-8.19.88-.87 1.66-1.36 2.52-2.36-6.23-.75-9.54.73-14.94 1.16z" style="fill:#fdecd4"/><path d="M1.67 61.73c.24 5.55-2.44 1.51.21 13.06.96-1.49 1.64-8.04 9.07-8.27 3.74-.12 6.77 2.47 8.45 4.9.82 1.19 1.15 1.49 1.79 2.79 4.5.17 10.57-5.46 11.7-8.9l.68-2.76c-1.26.85-.65.21-1.4 1.39-.05.08-.11.19-.16.27l-.28.61c-.6 1.37-.75 2.93-2.46 2.72 0 0-1.47-.35-.41-2.78.86-1.97.69 1.37.89-1.5-1.97-.54-1.79.23-1.94.33l-.85.88-3.02-3.29c-.59-.63-.69-.8-1.19-1.43-1.15-1.45-2.33-2.04-3.76-3.12-.11-.08-.69-.54-.78-.63-.07-.07-.16-.17-.23-.24-.06-.06-.14-.17-.21-.23-.8-.86-1.77-1.62-3.6-.62-.09.06-.38.23-.49.28-3.2 1.71-4.17-.48-4.47 1.97-1.42-1.5-.33.29-.93-1.54-.37-1.13.6-1.67 1.78-2.1.08-.03.21-.07.3-.09.08-.03.22-.05.3-.07.12-.03.49-.06.6-.1.37-.11-.13 1.76.76-.46.33-.84-1.06-.88-1.07-.88 2.32-1.61 4.74-3.32 8.03-3.87 5.77-.96 6.05 1.18 9.57.96-.13-1.96.55-1.02-1.67-1.89C14.4 42.2.67 57.11 1.67 61.73z" style="fill:#f7e6d5"/><path d="m21.19 74.21-.21.69c.09 1.34.84 2 1.66 3.23.46.7.63 1.09 1.09 1.56.83.85.75.62 1.3.9 1.59-.46 1.44.44 2.67 1.67.85.85 1.87 1.31 2.87 1.93 8.71 5.33 15.78 3.71 24.53 4.29.1-3.87-.33-8.83-2.63-11.36-1.43 1.69-3.68 1.36-6.63 1.32-2.54-.03-4.36-.36-6.54-1.18-3.16-1.19-6.73-4.95-8.01-7.89.62-.95 1.26-2.45 1.6-4.06-1.13 3.44-7.2 9.07-11.7 8.9z" class="fil1"/><path d="M33.57 62.55c1.25-1.36.55-4 .92-5.76.2-.91.11-.6.38-1.03-2.21-2.83-1.97-3.06-4.69-5.21l-1.63-1.54c-3.52.22-3.8-1.92-9.57-.96-3.29.55-5.71 2.26-8.03 3.87.01 0 1.4.04 1.07.88-.89 2.22-.39.35-.76.46-.11.04-.48.07-.6.1-.08.02-.22.04-.3.07-.09.02-.22.06-.3.09-1.18.43-2.15.97-1.78 2.1.6 1.83-.49.04.93 1.54.3-2.45 1.27-.26 4.47-1.97.11-.05.4-.22.49-.28 1.83-1 2.8-.24 3.6.62.07.06.15.17.21.23.07.07.16.17.23.24.09.09.67.55.78.63 1.43 1.08 2.61 1.67 3.76 3.12.5.63.6.8 1.19 1.43l3.02 3.29.85-.88c.15-.1-.03-.87 1.94-.33-.2 2.87-.03-.47-.89 1.5-1.06 2.43.41 2.78.41 2.78 1.71.21 1.86-1.35 2.46-2.72l.28-.61c.05-.08.11-.19.16-.27.75-1.18.14-.54 1.4-1.39z" style="fill:#feeed9"/><path d="M63.29 27.07c-1.09 1.7-.23.43-1.27 1.74 1.71 3.72 7.69 8.6 10.32 8.63 1.49.02 2.06-1.53 2.6-3.13-.09-.08-.15-.39-.16-.33-.01.06-.12-.25-.13-.32-.44-2.56 1.09-.96.25-7.79-.74-5.97-2.79-20.1-5.76-24.04-1.27 3.02-1.3 20.29-5.16 25.13-1 1.26-.26.97-.69.11z" class="fil1"/><path d="M55.09 90.56c-.8-.46-.23-.25-1.4-.32-.18-.01-1.48.07-1.74.09l-10.04.5c-3.04.14-9.34.61-11.17 2.09 4.5 2.37 53.99 2.99 60.41.21-.55-.93-.22-.53-1.01-1.33-.84-.85-.39-.46-1.34-1.02-1.39.62-5.46-.26-7.21-.41-2.34-.2-5.45-.07-6.37-.99l-1.01.93c-3.24 3.28-5.28 3.14-4.24-.44l-6.39-.1.4-1.07c-2.9 1.89-1.54 3.96-6.08 3.95-3.11-.01-2.97.54-2.81-2.09z" style="fill:#dce4eb"/><path d="M32.89 65.31c-.34 1.61-.98 3.11-1.6 4.06 1.28 2.94 4.85 6.7 8.01 7.89 2.18.82 4 1.15 6.54 1.18 2.95.04 5.2.37 6.63-1.32-.76-1.47-.26-1.18-1.68-1.87-.83.18-1.73-.63-2.27-1.09-.22-.2-.35-.35-.67-.64-2.31-2.06 1.39 1.16-.49-.43-9.5-8.03-9.21-11.75-10.89-14.03l-.74-.84c-1.48 2.29-.73 3.4-.96 6.59l-1.88.5z" style="fill:#f99931"/><path d="M47.31 25.63c.16 2.7-.63 3.75 1.02 5.5 2.87 3.06 6.5 2.1 8.61-2.1.46-.9.71-1.47.84-2.68.35-3.26-.43-2.29.46-2.42l.63-2.1c-.09-.06-.23-.26-.28-.17l-1-.4c-3.83-.85-9.48 2.45-10.28 4.37z" style="fill:#fcb22c"/><path d="M46.28 25.06c1.24-.57 2.04-1.62 3.37-2.49l3.98-2.05c-2.6-3.81-1.47-.83-4.49-6.8-1.24-2.45-2.12-5.59-3.09-7.81-1.96 4.28-1.79 15.32.23 19.15z" style="fill:#f49b3b"/><path d="m33.57 62.55-.68 2.76 1.88-.5c.23-3.19-.52-4.3.96-6.59l.74.84c1.68 2.28 1.39 6 10.89 14.03 1.88 1.59-1.82-1.63.49.43.32.29.45.44.67.64.54.46 1.44 1.27 2.27 1.09-.35-1.5-1.55-2.72-2.4-4.5-.83-1.77-1.08-3.41-1.43-5.49-10.77-6.38-5.08-2.89-12.09-9.5-.27.43-.18.12-.38 1.03-.37 1.76.33 4.4-.92 5.76z" style="fill:#f9b337"/><path d="M85.45 78.25c.53-.68 1.02 1.26.49-1.34-.13-.05-.3-.07-.41-.07l-.79-.05c-2 .2-1.77 2.36-9.25 2.11-3.49-.13-3.17-.14-4.59-1.39l-.58-.48c-.02-.02-.09-.12-.11-.14l-.73-1.03-1.87 5.24c1.18.46.82.38 2.11.63l1.37.22c.11.02.22.04.34.07 5.24 1.03 10.65-.51 14.02-3.77zM43.67 28.6c3.47-2.54 1.18-2.75.62-10.89-.3-4.21.03-8.74.63-12.79-2.41 5.9-4.58 17.68-1.25 23.68z" class="fil11"/><path d="M60.57 41.79c-1.7.92-2.56 1.16-4.36.67-1.54-5.35 3.94-4.12 4.36-.67zm-1.56 2.89.9-.18c.11-.08.3-.32.37-.21l2.78-1.09c.3-2.66-.4-4.45-2.46-5.59-2.8-1.55-4.91.15-6.37 1.29-.08 1.19-.11 1.13.06 2.28l2.25 2.54c.49.16.81.18 1.06.27.13.04.24.08.37.13.12.05.24.11.35.16l.69.4z" style="fill:#e5832c"/><path d="m20.98 74.9.21-.69c-.64-1.3-.97-1.6-1.79-2.79-1.68-2.43-4.71-5.02-8.45-4.9-7.43.23-8.11 6.78-9.07 8.27-2.65-11.55.03-7.51-.21-13.06-1.4 2.16-1.82 6-1.63 8.52.18 2.39 1.16 6.17 3.02 6.97-.14-5.98 3.01-10.12 7.91-9.94 6.52.23 9.41 7.91 9.72 7.36.05-.08.19.17.29.26z" style="fill:#745948"/><path d="M75.12 87.61c.34-.57.73-1.24 1.08-2.21.46-1.27.35-1.44.98-2.48l-5.06.03-.25 4.54 3.25.12z" class="fil11"/><path d="M60.57 41.79c-.42-3.45-5.9-4.68-4.36.67 1.8.49 2.66.25 4.36-.67zM45.7 42.11l1.61.28.35-2.18c.37.67.16.1 1.09.51-.46-1.43-.14-.68-.77-1.85-2.77-.51-3.06.61-3.07 3.16l.79.08z" class="fil14"/></g></g></svg>