<svg xmlns="http://www.w3.org/2000/svg" xml:space="preserve" width="343" height="299" style="shape-rendering:geometricPrecision;text-rendering:geometricPrecision;image-rendering:optimizeQuality;fill-rule:evenodd;clip-rule:evenodd" viewBox="0 0 125.38 109.01"><defs><style>.fil5{fill:#884818}.fil10{fill:#db732b}.fil8{fill:#ed8423}.fil4{fill:#f39c33}</style></defs><g id="Layer_x0020_1"><g id="_1883862569376"><path d="M21.57 76.91c-.13-.14-.34-.49-.43-.36l-2.26-1.2c-9.2-3.08-6.66-4.29-11.06-8.46-2.34-2.22-.43-2.05-.5-3.03-2.5-7.65-2.67-15.93 1.4-22.51 5.13-8.29 13.36-.34 16 4.16 3.8 6.46 1.45 8.32 9.52 17.56 3.93 4.51 10.51 10.44 16.75 10.69.05-8.53 3.35-19.45 2.81-26.77-3.57-2.02-7.17-2.42-9.75-3.95-2.91-1.72-5.1-4.03-6.23-8.04-5.82 2.31-12.39.88-17.95-.98-6.38-2.14-8.55-4.54-9.03-12.01l-1.04 1.3C-1.76 38.76-5.39 73.72 21.57 76.91z" style="fill:#f79a32"/><path d="M62.06 75.6c.83 1.87 3.85 6.46 3.91 8.34.78.57.39.23 1.07.91.55.54.73.78 1.11 1.27.63.81 1.16 1.59 1.83 2.47l.41-2.73c1.74-6.97 4.2-12.33 8.99-16.64 3.67-3.31 11.12-8.43 17.24-9.32l1.39-.81c-3.02-5.04-5.66-6.07-7.64-9.08-2.61-.49-4.43-3.88-9.23-4.36-.55 1.96.07.83-1.92 1.56l-2.09.87c-.08-.13-.27.19-.4.28.11-3.78-.9-.89-1.04-4.93-.52-1.63.89-.31-1.47-1.72-2.8-1.67-16.15-3.15-18.77-3.11 8.09 18.31-1.3 14.87 6.61 37z" style="fill:#fdebd7"/><path d="M21.57 76.91c7.73 1.31 14.08-1.68 23.7 2.69 2.82 1.28 3.81 2.62 6.43 3.71l-.71-9.55c-6.24-.25-12.82-6.18-16.75-10.69-8.07-9.24-5.72-11.1-9.52-17.56-2.64-4.5-10.87-12.45-16-4.16-4.07 6.58-3.9 14.86-1.4 22.51.07.98-1.84.81.5 3.03 4.4 4.17 1.86 5.38 11.06 8.46l2.26 1.2c.09-.13.3.22.43.36z" style="fill:#f18522"/><path d="M10.84 22.01c.48 7.47 2.65 9.87 9.03 12.01 5.56 1.86 12.13 3.29 17.95.98-.32-6.52 1.83-16.36 9.06-15.63 3.32.33 2.63 2.88 3.45 4.95 16.6-6.72-5.79-34.66-29.01-14.29-2.85 2.5-8.82 8.22-10.48 11.98z" style="fill:#fcf2e3"/><path d="M69.42 38.66c.79-4.76 6.49-3.69 6.09.84-2.38.78-4.26-.07-6.09-.84zm6.99-13.75-.5 2.57c-.15.04-.35.05-.46.06-.11.02-.32.05-.46.06l-7.16 1.8c-7.41 2.62-2.75.87-6.45 3.33l-6.64 4.63c-.11 5.8.41 9.74-.5 15.75-.73 4.77-1.64 9.61-1.91 14.48 1.47.99 5.76 8.17 8.44 8.33l1.29-.32c-7.91-22.13 1.48-18.69-6.61-37 2.62-.04 15.97 1.44 18.77 3.11 2.36 1.41.95.09 1.47 1.72 2.03-1.39 3.11-.44 5.11.86 2.39-.31 1.47-1.75 4.29-2.57 2.63-.77 5.75 1.33 6.92 3.34 1.18 2.03 1.17 2.54.64 4.91l-2.28.04c1.98 3.01 4.62 4.04 7.64 9.08 2.31-1.03-.4-11.04-.6-12.93-1.49-1.75.13-1.74-2.82-4.48-.69-.64-.43-.09-1.27-1.33 1.28-.12 2.02-.1 3.21.2l2.86 1.27c3.35.61 16.13 1.95 19.39-.52-27.11-3.01-19.98-9.48-32.69-14.91-4.26-1.82-3.15.83-4.15-.43-2.24-4.32 6-16.15 6.64-19.61-1.84.87-2.51 2.07-3.63 3.6-2.57 3.5-8.13 10.95-8.54 14.96z" class="fil4"/><path d="M88.06 68.77c4.5-3.61 5.97-6.05 11.89-8.95l2.68 4.61c-2.11 1.27-4.87 1.64-7.14 2.83-2.66 1.4-3.54 3.45-5.58 4.26-.94-.85-1.28-1.18-1.85-2.75zM37.82 35c1.13 4.01 3.32 6.32 6.23 8.04 2.58 1.53 6.18 1.93 9.75 3.95.54 7.32-2.76 18.24-2.81 26.77l.71 9.55c-2.62-1.09-3.61-2.43-6.43-3.71-9.62-4.37-15.97-1.38-23.7-2.69C-5.39 73.72-1.76 38.76 9.8 23.31l1.04-1.3c1.66-3.76 7.63-9.48 10.48-11.98 23.22-20.37 45.61 7.57 29.01 14.29-.82-2.07-.13-4.62-3.45-4.95-7.23-.73-9.38 9.11-9.06 15.63zm38.59-10.09c.41-4.01 5.97-11.46 8.54-14.96 1.12-1.53 1.79-2.73 3.63-3.6-.64 3.46-8.88 15.29-6.64 19.61 1 1.26-.11-1.39 4.15.43 12.71 5.43 5.58 11.9 32.69 14.91-3.26 2.47-16.04 1.13-19.39.52l-1.82.44c9.51 1.82 16.24 1.42 26.12.69-2.72 3.71-16.7 10.73-23.74 10.94-.63-1.39-2.17-6.43-2.51-8.19l-.03.46c.2 1.89 2.91 11.9.6 12.93l-1.39.81c-.98 1.03-2.11 1.92-3.38 2.88-1.39 1.05-1.75 1.42-3.21 3-1.48 1.6-3.98 4.69-5.84 5.98l.17 1.36c1.09-1.3 1.62-2.09 2.35-3.26 1.07.54.52-.34 1.49 1.11.81 1.26.66 1.03 1.63 1.82 2.87-1.14 4.63-5.78 14.65-7.39 3.41-.55 1.95-.68 3.7-1.14l.75-.06c.06-.14.27-.02.4.02.08 1.94-.69 2.56-2.02 3.64-4.02 3.25-6.9 8.55-8.07 9.54l-1.69 4.51c-.69 5.18-3.24 16.49-6.62 18.8-3.67-2.96-10.02-10.74-7.58-18.49l-.02-3.3-1.1 4.37c-.3 4.08.98 7.62 1.93 11.02-2.18 2.91-2.49.9-3.74 5.47-2.19-3.17-6.03-6.13-6.09-10.54-.61.74-1.03-.79-.48 2.39.39 2.19 2.16 3.64 3.48 5.98-3-1.28-8.82-3.42-11-5.75-2.08-2.23-.68-3.55-3.15-2.55-.17 4.5-.78 7.7-6.02 7.09-3.57-5.17-6.93-21.47-4.83-28.81.27-4.87 1.18-9.71 1.91-14.48.91-6.01.39-9.95.5-15.75l6.64-4.63-2.33.31c.7-7.28 4.14-13.86 8.26-18.18 2.58-2.69 11.3-9.61 15.66-10.63 1.72-1.54 4.58-2.52 7.31-2.9L76.66 22c-.9 2.03-.74 2.13-.25 2.91zM30.9 3.17c-1.19.89-4.4 2.1-6.01 3.1-4.82 2.98-10.28 9.13-13.95 13.7C-.39 34.06-6.05 61.09 9.68 73.54c9.25 7.31 27.76 2.78 30.71 5.87 4.05.07 10.91 4.72 12.15 7.61 2.01 4.68 1.14 4.55 4.74 12.17.95 2.01.43.56.68 1.88 2.51 1.55 6.67 6.12 6.38-1.34-1.16-2.79-1.23-6.32-.25-9.16 3.4 4.75 9.68 6.05 11.63 7.85l-2.7.95c-.51 1-.67 1.15-.55 2.69 3.16 2.49 5.81.77 10.04.97 3.58.17 4.81 2.88 8.99 1.35.57-1.58-.19-1.09.25-2.59.36-1.2 1.42-2.16 2.29-2.82.33-2.61 4.43-16.55 5.7-19.53 2.32-5.44 9.98-11.54 10.43-15.01-1.61-3.06-2.58-1.28-3.99-3.45-1.68-2.57.65-2.32-.73-5.44-3.6-1.26-3.96.3-5.14 2.51-.24-3.04-.86-2.28 1.33-3.1 6.24-2.33 10.3-2.44 18.74-7.86 2.31-1.48 5-2.65 5-5.88-7.28-2.29-17.16-1.13-24.74-5.1-2.38-1.25-5.83-5.1-8.29-6.95-2.76-2.08-7.82-3.92-9.4-5.33.5-4.16 3.44-10.44 5.13-13.6 5.81-10.9 5.91-9.12.83-10.23l-1.63.95c-4.34 2.13-3.59 1.22-9.47 4.67-21.81 12.81-17.86 24.41-20 28-1.94 1.47-3.46 2.03-4.45 3.72l.52 8.45c-7.69-2.75-15.9-4.58-15.32-14.59.25-4.24 2.53-8.62 4.99-10.24 1.81-1.2 3.68-1.35 4.88.28 1.47 1.99.15 2.8-.79 4.63C63.07 23.48 59.78-2.68 30.9 3.17z" class="fil5"/><path d="m70.39 85.86 2.3 1.2c2.02 1.29 1.37.47 1.64 2.18.06 4.41 3.9 7.37 6.09 10.54 1.25-4.57 1.56-2.56 3.74-5.47-.95-3.4-2.23-6.94-1.93-11.02l1.96-11.53c1.86-1.29 4.36-4.38 5.84-5.98 1.46-1.58 1.82-1.95 3.21-3 1.27-.96 2.4-1.85 3.38-2.88-6.12.89-13.57 6.01-17.24 9.32-4.79 4.31-7.25 9.67-8.99 16.64z" style="fill:#f59533"/><path d="M64.34 99.73c.29 7.46-3.87 2.89-6.38 1.34-1.61 1.85-3.53 1.5-3.42 4.32l7.37 1.64c5.18.89 10.4 1.59 15.48 1.89 7.65.45 9.37-.83 15.7-1.62 1.48-.59 2.94-1.06 4.63-1.76 2.11-.87 2.39-1.06 2.97-2.77-3.42-2.86-6.1-1.8-6.65-3.8-.87.66-1.93 1.62-2.29 2.82-.44 1.5.32 1.01-.25 2.59-4.18 1.53-5.41-1.18-8.99-1.35-4.23-.2-6.88 1.52-10.04-.97-.12-1.54.04-1.69.55-2.69-2.34-.65-5.11.97-8.68.36z" style="fill:#dce1e5"/><path d="M63.18 89.31c.29-2.34-.08-1 1.21-2.86.96-1.39.84-1.38 1.58-2.51-.06-1.88-3.08-6.47-3.91-8.34l-1.29.32c-2.68-.16-6.97-7.34-8.44-8.33-2.1 7.34 1.26 23.64 4.83 28.81 5.24.61 5.85-2.59 6.02-7.09zM61.38 32.73c3.7-2.46-.96-.71 6.45-3.33l7.16-1.8c.14-.01.35-.04.46-.06.11-.01.31-.02.46-.06l-2.08-3.6c-2.67-3.53-1.25-8.12.78-10.23l5.8-5.34c.09-.07.21-.19.29-.27 3.36-3.06 1.19-.79 4.59-2.83-1.35-1.56 2.05-2.54-2.32-.98-4.36 1.02-13.08 7.94-15.66 10.63-4.12 4.32-7.56 10.9-8.26 18.18l2.33-.31z" class="fil8"/><path d="m97.41 46.16.03-.46c.34 1.76 1.88 6.8 2.51 8.19 7.04-.21 21.02-7.23 23.74-10.94-9.88.73-16.61 1.13-26.12-.69l1.82-.44-2.86-1.27c-1.19-.3-1.93-.32-3.21-.2.84 1.24.58.69 1.27 1.33 2.95 2.74 1.33 2.73 2.82 4.48z" style="fill:#e67826"/><path d="m84.19 71.76-1.96 11.53 1.1-4.37.02 3.3c1.47 1.71 1.23 2.97 2.62 4.62 3.2 3.8 8.41-.1 8.59-.36l2.99-4.57 1.69-4.51c.18-1.11.45-.7.13-2.75-2.72 1.35-5.79 4.76-8.85 4.21-3.02-.54-5.78-8.82-2.32-7.89-.97-1.45-.42-.57-1.49-1.11-.73 1.17-1.26 1.96-2.35 3.26l-.17-1.36z" class="fil8"/><path d="M88.2 70.97c-3.46-.93-.7 7.35 2.32 7.89 3.06.55 6.13-2.86 8.85-4.21.32 2.05.05 1.64-.13 2.75 1.17-.99 4.05-6.29 8.07-9.54 1.33-1.08 2.1-1.7 2.02-3.64-.13-.04-.34-.16-.4-.02l-.75.06c-1.75.46-.29.59-3.7 1.14-10.02 1.61-11.78 6.25-14.65 7.39-.97-.79-.82-.56-1.63-1.82z" class="fil4"/><path d="m97.55 81.91-2.99 4.57c-.18.26-5.39 4.16-8.59.36-1.39-1.65-1.15-2.91-2.62-4.62-2.44 7.75 3.91 15.53 7.58 18.49 3.38-2.31 5.93-13.62 6.62-18.8zM82.97 4.23c4.37-1.56.97-.58 2.32.98-3.4 2.04-1.23-.23-4.59 2.83-.08.08-.2.2-.29.27l-5.8 5.34c-2.03 2.11-3.45 6.7-.78 10.23l2.08 3.6.5-2.57c-.49-.78-.65-.88.25-2.91L90.28 1.33c-2.73.38-5.59 1.36-7.31 2.9zM63.18 89.31c2.47-1 1.07.32 3.15 2.55 2.18 2.33 8 4.47 11 5.75-1.32-2.34-3.09-3.79-3.48-5.98-.55-3.18-.13-1.65.48-2.39-.27-1.71.38-.89-1.64-2.18l-2.3-1.2-.41 2.73c-.67-.88-1.2-1.66-1.83-2.47-.38-.49-.56-.73-1.11-1.27-.68-.68-.29-.34-1.07-.91-.74 1.13-.62 1.12-1.58 2.51-1.29 1.86-.92.52-1.21 2.86z" class="fil10"/><path d="m80.8 44.29.34 1.36c4.8.48 6.62 3.87 9.23 4.36l2.28-.04c.53-2.37.54-2.88-.64-4.91-1.17-2.01-4.29-4.11-6.92-3.34-2.82.82-1.9 2.26-4.29 2.57z" style="fill:#d97527"/><path d="M75.69 43.43c.14 4.04 1.15 1.15 1.04 4.93.13-.09.32-.41.4-.28l2.09-.87c1.99-.73 1.37.4 1.92-1.56l-.34-1.36c-2-1.3-3.08-2.25-5.11-.86z" class="fil5"/><path d="M69.42 38.66c1.83.77 3.71 1.62 6.09.84.4-4.53-5.3-5.6-6.09-.84z" style="fill:#4d1402"/></g></g></svg>