<svg xmlns="http://www.w3.org/2000/svg" xml:space="preserve" style="shape-rendering:geometricPrecision;text-rendering:geometricPrecision;image-rendering:optimizeQuality;fill-rule:evenodd;clip-rule:evenodd" viewBox="0 0 250.7 75.45"><defs><style>.fil14{fill:#4d1402}.fil2{fill:#ed8423}</style></defs><g id="Layer_x0020_1"><g id="_1884093526512"><path d="M214.3 23.91c-9.3-3.8-20.09-3.49-29.56.92-12.85 5.99-10.09 8.18-15.25 20.28-5.68 13.31-17.24 19.88-31.78 20.38-5.93.21-12.03-.71-16.81-.42.26-3.27-.2-1.65 1.08-3.79 10.16-.64 15.25-2.67 18.94-10.02 3.47-6.94 4.56-15.98 5.63-24.35l1.37-4.1c.17-.15.4-.3.55-.41l1-.76c.18-.14.47-.27 1.13-.98l1.51-2.19c.05-.07.17-.24.21-.3.04-.07.14-.22.19-.28l.35-.56c.62-.77-.55.41 1.02-1.08 2.49-2.38-2.66.78 1.14-.88-.5 1.72-1 3.43-1.26 5.75 4.6-.16 4.17-1.52 7.64-3.21 12.95-6.29 19.87-.18 36.53-3.05 7.26-1.25 7.03-3.96 11.44-.82.09.06.26.18.35.24 7.35 5.55 3.63 5.26 5.73 7.32 0 4.75.27 1.23-1.15 2.31z" style="fill:#f79a32"/><path d="M42.44 55.22c.87-3.78-2.82-5.68-6.97-4.76v4.95c2.82.53 4.73.73 6.97-.19zm8.68-21.78c-4.39-.52.2-.05-4.18 1.05 2.17 3.86 3.33 2.03 7.27 8.27 1.99 3.14 1.47 7.61 2.96 10.75 3.59-1.47 2.84-.84 3.78-2.69 3.62-2.06 3.8-2.57 6.45-5.32 1.21 1.22 2.62 4.09 3.35 6.11 1.96 5.43-6.56 11.32-11.31 13.68 1.43-2.2 2.21-2.1 3.37-5.25-9.26.38-7.7 3.25-26.11 2.44-9.1-.4-17.96 1.37-26.61 1.71L8.68 66.3c.14-1.88-.11-1.2-.09-2.17 0-.11.02-.35.03-.43 0-.08.05-.21.05-.4.01-.18.02-.26.07-.38 7.99-2.08 15.08-2.3 15.51-10.4 2.09-2.92-4.61-9.44-7.91-2.37-2.69 5.77.29 4.13-1.08 6.98 1.67-.12 3.97.09 4.91.62-4.37 3.66-8.45 1.84-10.77-2.87 1.37-4 6.76-18.51 9.74-22.37l2.2-2.23c1.13 1.22.46 2.06.89 4.18.4 2 .59 2.34 2.36 3.21 2.47 1.2 6.25 1.21 8.31-.19 1.99-1.37 3.15-4.14 5.05-5.91 2.38-2.21 1.25.17 2.72-3.17 1.18-2.71-1.01-.83 1.35-1.84 1.33 1.28-1.52 1.22 2.36.58L74.2 8.8c-1.15 3.91-7.49 10.61-10.08 13.45a72.65 72.65 0 0 1-13 11.19z" style="fill:#f69a35"/><path d="M214.3 23.91c3.27 1.65-1.35-1.75 1.14.99l-1.34 2.73c.18 2.91-3.91 4.71-5.98 6.04-10.45-1.11-15.33 6.41-19.76 11.2-5.2 5.6-9.55 9.79-16.68 14.62-10.3 6.99-36.01 13.31-51.06 6.99-.13-6.35.28-4.58 1.36-5.2-1.28 2.14-.82.52-1.08 3.79 4.78-.29 10.88.63 16.81.42 14.54-.5 26.1-7.07 31.78-20.38 5.16-12.1 2.4-14.29 15.25-20.28 9.47-4.41 20.26-4.72 29.56-.92zM115.37 48.18c.87.7.3-.45 1.14 1.13 1.4 2.05.67 1.7 1.51 3.49.27.56.16.61.68 1.03 1.29 1.06-.47 2.2.93-.04l1.24 5.34-1.36 3.78c-.77 3.58-1.83 5.25-6.54 6.72-2.77.87-13.51 1.9-16.57 1.25-4.94-1.05-6.86-6.03-13.26-5.2-6.2.8-4.52 4.82-13.4 4.49l-.2-3.2c-.17.16-.28.24-.32.51l-3.29 4.47c-2.35.01-13.29 3.39-21.37.26-2.33-.9-3.18-2.7-4.14-4.86 5.11.36 8.34 1.27 13.69.56 6.89-.91 4.71-.6 10.91.39-.96-.76-.58-.54-2.09-1.27-.57-.28-.93-.42-1.54-.71-.13-.06-.44-.03-.54-.28-.09-.24-.37-.16-.54-.28 3.51-1.03 7.73-5.41 9.65-7.65 4.47-5.2 2.6-3.77-.04-10.65 18.74 1.33 12.72 6.08 22.39 7.88 3.95.74 9.35.22 13.86-.69 5.28-1.07 6.81-1.85 9.2-6.47z" class="fil2"/><path d="M78.64 6.99c-2.67 1.18-4.59 4.83-5.99 6.76-6.86 9.53-9.31 11.31-17.03 17.68-1.48 1.22-.74.36-1.89 1.91-.78.05-2.01.21-2.61.1a72.65 72.65 0 0 0 13-11.19c2.59-2.84 8.93-9.54 10.08-13.45L44.38 27.14c-3.88.64-1.03.7-2.36-.58 2.47-.12 3.55-1.03 5.01-2.48-8.22-2.46-17.12-2.15-23.74 3.76l-1.95 2.44-2.2 2.23c-2.98 3.86-8.37 18.37-9.74 22.37 2.32 4.71 6.4 6.53 10.77 2.87 1.24-.89 1.82-1.47 1.85-2.02l1.13-4.34 1.1 1.13c-.43 8.1-7.52 8.32-15.51 10.4-.05.12-.06.2-.07.38 0 .19-.05.32-.05.4-.01.08-.03.32-.03.43-.02.97.23.29.09 2.17l-.66 1.25c9.12 3.39 19.85 2.17 28.41-.67.01-.15-.03-.54-.04-.44l-.37-.94c10.06-.44 10.95 4.14 23.42-.21 4.75-2.36 13.27-8.25 11.31-13.68-.73-2.02-2.14-4.89-3.35-6.11-2.65 2.75-2.83 3.26-6.45 5.32l3.72-4.12c3.26-3.42 6.45-12.03 8.15-16.35 2.95-7.49 6.64-16.28 7.84-25.35-1.51.78-1.52-.02-2.02 1.99zM22.42 25.63c.94 2.09.97.65 3.26-.81 6.08-3.87 9.96-2.81 15.8-3.39 1-6.81 5.15-12.01 6.47-17.79-3.99.32-12.66 7.5-14.62 9.66-4.17 4.59-5.55 4.85-8.45 9.25l-2.46 3.08zm84.83 9.06c.08.09.2.22.24.26l.53.56c5.81 5.78 9.31 9.07 11.61 18.28-1.4 2.24.36 1.1-.93.04-.52-.42-.41-.47-.68-1.03-.84-1.79-.11-1.44-1.51-3.49-2.91-7.19-8.52-13.36-15.65-16.26-6.49-2.64-21.44-3.68-25.95 2.21-4.17 1.59-3.46 1.6-5.26 5.52-1.8 3.9-1.72 2.86.27 6.68 2.64 6.88 4.51 5.45.04 10.65-1.92 2.24-6.14 6.62-9.65 7.65.17.12.45.04.54.28.1.25.41.22.54.28.61.29.97.43 1.54.71 1.51.73 1.13.51 2.09 1.27-6.2-.99-4.02-1.3-10.91-.39-5.35.71-8.58-.2-13.69-.56.96 2.16 1.81 3.96 4.14 4.86 8.08 3.13 19.02-.25 21.37-.26-1.41 2.16-6.29 2.72-8.73 2.97-4.41.46-7.78-.33-11.78-.76-12.86-1.39-15.84 4.67-18.78-1.66-.04-.09-.09-.31-.17-.45-2.2 1.47-12.21 5.24-12.88.2l-.08-1.79C-4.86 66.13.81 61.28.88 61.4c.1.16.4-.21.54-.24 3.03-.7 4.11.52 10.89-.27-1.16-2.92-2.54-2.88-4.42-5.33 2.13-8.01 10.66-27.19 14.53-29.93C23.03 19.14 44.75.09 51.33 0c.34 4.11-8.23 13.57-7.97 21.45 6.32 2.08 6.68 1.65 11.23-1.22L72.23 7.86c1.9-1.43 6.41-6.11 9.47-4.84 2.4 5.33-6.79 26.2-8.78 31.39 15.22-6.87 19.06-6.23 34.33.28z" style="fill:#884818"/><path d="M218.97 11.87c.1.13.26.15.31.35l3.95 2.84c14.15 9.44 11.66 20.99 19.32 25.7 1.73 1.06 3.68 1.31 5.16 2.52-8.02 2.6-9.37 4.83-20.89-1.15-5.47-2.84-12.03-7.46-18.7-8.46 2.07-1.33 6.16-3.13 5.98-6.04 1.77-1.38 1.24-.03 1.6-3.44.94-8.96-7.24-15.48-7.78-16.37l11.05 4.05z" style="fill:#fdebd7"/><path d="m218.97 11.87-11.05-4.05c-8.32-5.05-28.2-5.54-39.05-2.23-16.58 5.07-18.13 11.73-22.32 21.32-1.07 8.37-2.16 17.41-5.63 24.35-3.69 7.35-8.78 9.38-18.94 10.02-1.08.62-1.49-1.15-1.36 5.2 15.05 6.32 40.76 0 51.06-6.99 7.13-4.83 11.48-9.02 16.68-14.62 4.43-4.79 9.31-12.31 19.76-11.2 6.67 1 13.23 5.62 18.7 8.46 11.52 5.98 12.87 3.75 20.89 1.15-1.48-1.21-3.43-1.46-5.16-2.52-7.66-4.71-5.17-16.26-19.32-25.7l-3.95-2.84c-.05-.2-.21-.22-.31-.35zm-6.93-4.04c.74.64 1.93 1.02 3.13 1.54.54.23 1.45.56 1.92.84 2.35 1.37 1.13.42 1.88 1.66 5.14.45 13.01 8.19 16.09 14.58 1.69 3.49 2.82 6.6 4.94 10.06 3.03 4.94 3.89 4.07 10.7 4.92-15.77 17.27-30.13-9.71-47.47-6.3-7.58 1.49-15 13.6-26.17 22.32-1.81 1.41-8.54 5.54-9.36 6.42-14.21 5.01-21.72 7.34-38.18 5.89-9.15-.8-7.76-2.9-10.99-.65-6.57 4.57-16.59 3.89-25.88 3.68-2.49-.06-12.79.07-14.16-.32-3.82-1.08-.12-1.58-6.3-.97-2.31.23-4.4.5-6.26.45l3.29-4.47c.04-.27.15-.35.32-.51l.2 3.2c8.88.33 7.2-3.69 13.4-4.49 6.4-.83 8.32 4.15 13.26 5.2 3.06.65 13.8-.38 16.57-1.25 4.71-1.47 5.77-3.14 6.54-6.72l1.36-3.78c1.04 1.48-.18.52 1.89.9l6.31-.84c19.93-5.14 10.65-33.71 22.52-44.97 6.58-6.24 14.72-10.85 27.01-11.91 15.11-1.31 21.31 2.07 33.44 5.52z" style="fill:#874a25"/><path d="M207.92 7.82c.54.89 8.72 7.41 7.78 16.37-.36 3.41.17 2.06-1.6 3.44l1.34-2.73c-2.49-2.74 2.13.66-1.14-.99 1.42-1.08 1.15 2.44 1.15-2.31-2.1-2.06 1.62-1.77-5.73-7.32-.09-.06-.26-.18-.35-.24-4.41-3.14-4.18-.43-11.44.82-16.66 2.87-23.58-3.24-36.53 3.05-3.47 1.69-3.04 3.05-7.64 3.21.26-2.32.76-4.03 1.26-5.75-3.8 1.66 1.35-1.5-1.14.88-1.57 1.49-.4.31-1.02 1.08l-.35.56c-.05.06-.15.21-.19.28-.04.06-.16.23-.21.3l-1.51 2.19c-.66.71-.95.84-1.13.98l-1 .76c-.15.11-.38.26-.55.41l-1.37 4.1c4.19-9.59 5.74-16.25 22.32-21.32 10.85-3.31 30.73-2.82 39.05 2.23z" style="fill:#fdad2c"/><path d="M115.37 48.18c-2.39 4.62-3.92 5.4-9.2 6.47-4.51.91-9.91 1.43-13.86.69-9.67-1.8-3.65-6.55-22.39-7.88-1.99-3.82-2.07-2.78-.27-6.68 1.8-3.92 1.09-3.93 5.26-5.52l.04 1.28c11.61 3.72 3.08-.89 16.29 6.09 4.92 2.6 16.39 4.71 13.69-5.32l7.3 5.71c.21.28.38.48.6.82l2.29 4.02c.03-.09.2.2.25.32z" style="fill:#f99931"/><path d="M60.95 50.82c-.94 1.85-.19 1.22-3.78 2.69-1.49-3.14-.97-7.61-2.96-10.75-3.94-6.24-5.1-4.41-7.27-8.27 4.38-1.1-.21-1.57 4.18-1.05.6.11 1.83-.05 2.61-.1 3.13.8 7.41-.92 9.93-2.11 5.42-2.58 8.48-9.57 11.33-14.47 1.18-2.03 1.06-2.48 2.12-4.7 1.5-3.13 1.94-.97 1.53-5.07.5-2.01.51-1.21 2.02-1.99-1.2 9.07-4.89 17.86-7.84 25.35-1.7 4.32-4.89 12.93-8.15 16.35l-3.72 4.12z" class="fil2"/><path d="M116.51 49.31c-.84-1.58-.27-.43-1.14-1.13-.05-.12-.22-.41-.25-.32l-2.29-4.02c-.22-.34-.39-.54-.6-.82l-7.3-5.71c2.7 10.03-8.77 7.92-13.69 5.32-13.21-6.98-4.68-2.37-16.29-6.09l-.04-1.28c4.51-5.89 19.46-4.85 25.95-2.21 7.13 2.9 12.74 9.07 15.65 16.26z" style="fill:#fead32"/><path d="M59.44 65.29c-12.47 4.35-13.36-.23-23.42.21l.37.94c.01-.1.05.29.04.44-8.56 2.84-19.29 4.06-28.41.67l.66-1.25 1.41-2.11c8.65-.34 17.51-2.11 26.61-1.71 18.41.81 16.85-2.06 26.11-2.44-1.16 3.15-1.94 3.05-3.37 5.25z" style="fill:#f9e7c7"/><path d="M42.02 26.56c-2.36 1.01-.17-.87-1.35 1.84-1.47 3.34-.34.96-2.72 3.17-1.9 1.77-3.06 4.54-5.05 5.91-2.06 1.4-5.84 1.39-8.31.19-1.77-.87-1.96-1.21-2.36-3.21-.43-2.12.24-2.96-.89-4.18l1.95-2.44c6.62-5.91 15.52-6.22 23.74-3.76-1.46 1.45-2.54 2.36-5.01 2.48z" style="fill:#fcb22c"/><path d="m22.42 25.63 2.46-3.08c2.9-4.4 4.28-4.66 8.45-9.25 1.96-2.16 10.63-9.34 14.62-9.66-1.32 5.78-5.47 10.98-6.47 17.79-5.84.58-9.72-.48-15.8 3.39-2.29 1.46-2.32 2.9-3.26.81z" style="fill:#f49b3b"/><path d="M53.73 33.34c1.15-1.55.41-.69 1.89-1.91 7.72-6.37 10.17-8.15 17.03-17.68 1.4-1.93 3.32-5.58 5.99-6.76.41 4.1-.03 1.94-1.53 5.07-1.06 2.22-.94 2.67-2.12 4.7-2.85 4.9-5.91 11.89-11.33 14.47-2.52 1.19-6.8 2.91-9.93 2.11z" style="fill:#db732b"/><path d="m24.25 52.52-1.1-1.13-.52-1.31c-3.74.17-5.36 2.09-4.38 5.44l3.77.21c-.03.55-.61 1.13-1.85 2.02-.94-.53-3.24-.74-4.91-.62 1.37-2.85-1.61-1.21 1.08-6.98 3.3-7.07 10-.55 7.91 2.37z" style="fill:#e47a35"/><path d="M42.44 55.22c-2.24.92-4.15.72-6.97.19v-4.95c4.15-.92 7.84.98 6.97 4.76zM23.15 51.39l-1.13 4.34-3.77-.21c-.98-3.35.64-5.27 4.38-5.44l.52 1.31z" class="fil14"/></g></g></svg>