<svg xmlns="http://www.w3.org/2000/svg" xml:space="preserve" width="30.949" height="19.541" style="shape-rendering:geometricPrecision;text-rendering:geometricPrecision;image-rendering:optimizeQuality;fill-rule:evenodd;clip-rule:evenodd" viewBox="0 0 35.15 22.2"><path d="M17.74 19.49c.5.05.65-.25 1.43-.63.22-.11.48-.23.7-.35.23-.13.38-.25.69-.37 1.03-.41 1.94-.91 3.04-1.18.3-.07.55-.1.83-.17.64-.16 2.1-.45 2.71-.45.47 0 .45-.11.92-.11.62 0 1.46-.04 2.01.08.27.06.71.05.99 0l.01-.37c-.08-.17-.12-.47-.16-.68-.07-.31-.1-.46-.14-.77-.05-.41-.36-1.16-.27-1.52-.21-.21-.27-.81-.33-1.11-.07-.37-.19-.78-.27-1.14-.16-.71-.39-1.48-.5-2.11l-.97-4.7c-.05-.17-.13-.62-.21-.92-.09-.36-.16-.6-.22-.97-.08-.44-.43-1.53-.37-1.89-.58-.22-2.83-.09-3.65-.09-1.07 0-.72-.05-1.71.11-.27.04-.54.1-.79.16-.89.22-2.49.92-3.22 1.38-.5.32-.49.77-.48 1.36.01 1.44.07 15.8-.02 16.42zM5.36 3.63l.02.01.28-1.1c-.04-.02-.06-.05-.07-.04-.01.01-.04-.02-.05-.03-.29-.17-.21-.12-.45-.14-2.28-.25-1.61-1-2.16 1.56-.19.37-.54 3.1-.69 3.73-.13.56-.23 1.23-.35 1.8-.04.2-.3 1.68-.4 1.8-.01.17-.07.89-.18 1.02-.15 1.2-.67 2.74-.83 4.35-.08.81-.59 1.73-.45 2.58.19-.07 3.64.61 4.46.75.18.03.32.08.58.13.18.03.49.07.7.11l1.82.39c.44.08 2.01.22 2.49.41.02.01.04.05.05.03.01-.02.04.02.05.04l-.03-.04c.33.04.53.08.81.11l4.28.8c.14.03.25.06.36.08.29.07.46.11.76.15.58.08 1.07.08 1.72.08.2 0 .25 0 .43-.04l4.26-.8c1.52-.39 4.79-.74 6.2-1.12.5-.13 1.02-.18 1.54-.26l1.53-.3c.67-.15 2.47-.42 2.97-.6l.1-.04c.08-.71-.04-.6-.16-1.09-.08-.33-.11-.76-.19-1.07-.19-.76-.23-1.4-.4-2.18l-2.08-10.6c-.1-.5-.3-1.69-.49-2.07l-.81.16c-.46.12-.94.11-1.26.27-.02.01-.03.02-.05.03l.1 1.35c.12.07.2.71.2.84.28.35.6 2.65.74 3.2l.04.44c.11.11.15.4.2.68.13.71.4 1.18.51 2.09l.09.21c.01.03.06.23.06.25.03.18.07.38.1.51.08.34.14.67.22.97.12.45.41 1.55.43 1.97.01.01.02.04.02.05 0 .01.02.03.02.05l.24 1.16c.06.36.2.82.24 1.17-.41.02-.62-.11-1.02-.1-.48 0-.59-.1-1.06-.09h-1.13l-4.81.8c-.57.14-1.25.27-1.82.45l-.55.17c-.01.01-.03.01-.05.02l-1.07.38c-1.51.56-1.65.75-2.77 1.2-.52.2-.88.45-1.29.33l-1.53-.7c-.44-.23-.57-.22-.8-.34-.7-.34-2.5-1.01-3.29-1.17-.67-.14-1.26-.34-1.82-.44-.37-.07-.53-.14-.91-.22l-2.45-.38c-1.01.01-1.59-.19-2.74-.06-.14.12-.79.06-.94.04-.05.14.14.18-.58.13L2.49 16c.1-.5.21-.95.34-1.46l.51-2.11c.05-.2.05-.6.22-.68-.05-.25.46-2.24.55-2.34.03-.45.8-4.31 1.04-4.56-.04-.33.15-.79.17-1.17zm1.62-.57c-.15.58-.24 1.12-.38 1.72l-.72 3.35c-.06.28-.28 1.48-.41 1.69 0 .54-.48 2.22-.68 2.98l-.16.81c0 .01-.01.04-.02.04l-.04.08c-.09.74-.49 1.84-.4 2.6l2.96-.09 4.51.74c.93.26 2.13.74 2.94 1.14l2.37 1.26c.16.1.12.15.39.09.08-.83.01-13.33.01-14.55 0-3.31.28-2.73-1.06-3.56-.49-.3-1.35-.65-1.89-.82-1.35-.43-1.82-.49-3.12-.49-1.16 0-2.5-.06-3.63.01-.15.42-.49 2.42-.69 3.01z" style="fill:#fefefe"/></svg>