<svg xmlns="http://www.w3.org/2000/svg" xml:space="preserve" width="23.648" height="19.672" style="shape-rendering:geometricPrecision;text-rendering:geometricPrecision;image-rendering:optimizeQuality;fill-rule:evenodd;clip-rule:evenodd" viewBox="0 0 19.57 16.28"><defs><style>.fil0{fill:#fefefe}</style></defs><g id="Layer_x0020_1"><g id="_2758684534288"><path d="M2.8 8.39v7.88h5.02v-5.21h3.89v5.21h5.02V8.43c0-.06-.09-.1-.19-.17L9.77 3.37c-.09.05-.14.1-.21.15-.08.05-.14.1-.23.16l-.43.31c-.15.11-.29.21-.43.31l-3.9 2.83c-.15.11-.29.2-.43.31-.15.11-.28.21-.43.31l-.66.47c-.06.04-.16.14-.23.15z" class="fil0"/><path d="M0 7.09c.04.06.09.11.13.17l.67.92c.08.1.17.29.27.37l1.21-.88c.05-.04.09-.06.14-.1.09-.07.18-.13.27-.2.58-.44 1.19-.85 1.77-1.28l.41-.3c.65-.44 1.27-.93 1.91-1.38.09-.06.18-.13.27-.2l2.72-1.98c.09.06.18.13.27.2l2.45 1.78c.65.45 1.27.93 1.91 1.38l.82.59c.09.07.18.13.27.2l1.91 1.38c.37.26.73.55 1.1.8.12-.09.43-.58.54-.72.09-.11.51-.66.53-.75-.11-.03-.62-.43-.72-.5l-1.06-.77c-.13-.09-.24-.17-.36-.26l-.53-.39c-.05-.03-.17-.1-.17-.15v-5h-2.41v3.27c-.07-.02-.1-.05-.15-.09-.05-.04-.09-.06-.14-.1-.1-.08-.18-.13-.28-.21-.51-.39-1.05-.74-1.56-1.13L10.34.42c-.1-.07-.18-.14-.28-.21l-.29-.2C9.6.1 7.52 1.63 7.33 1.78L.01 7.1z" class="fil0"/></g></g></svg>