<svg xmlns="http://www.w3.org/2000/svg" xml:space="preserve" width="30.159" height="25.793" style="shape-rendering:geometricPrecision;text-rendering:geometricPrecision;image-rendering:optimizeQuality;fill-rule:evenodd;clip-rule:evenodd" viewBox="0 0 28.48 24.36"><path d="m11.38 18.7.17.12c.07.07.08.08.16.15.13.12.23.22.31.36.11.11.08.06.15.2l.32.28c.11.1.25.23.3.36.19.15.17.11.3.32l-1.8.02v-1.92c.11.07.06.04.1.11zM27.05 8.34c-.11.17-.22.2-.42.28-.03.06 0 .03-.1.1-.05.04-.07.05-.12.09-.12.09-.16.11-.3.15-.14.22-.27.23-.46.39-.23.19-1.19.89-1.27 1.1-.27.13-.29.26-.56.41l-.08.09c-.09.17-.48.5-.66.66-.08.07.01.01-.1.07l-.02.03c-.12.25-.35.34-.51.58-.28.27-1.22 1.5-1.3 1.78-.15-.06-.16-.06-.29-.14-.15-.09-.15-.07-.25-.19-.16-.02-.56-.27-.74-.38-.21-.12-.59-.26-.75-.36l-.82-.27c-.01-.02-.03-.01-.04-.02-.09.08-.1-.03-.02.15l.34.49c.08.11.14.21.23.34.14.22.14.17.17.33.16.12.1.06.18.26.12.08.25.34.28.49.18.11.18.22.28.4.04.08.08.13.12.19.12.2.06.06.08.22.15.14.36.56.45.77.1.13.44.76.58 1.08.03.06.05.11.06.14.07-.06.15-.17.22-.3.19-.32.38-.78.56-.96.07-.22.09-.18.19-.36.04-.07.04-.1.09-.17.09-.11.04-.05.12-.1.02-.15-.1.01.07-.15l1.07-1.56c.02-.17.07-.16.18-.32.1-.15.07-.15.21-.24.08-.17.04-.12.18-.21.03-.17.14-.24.25-.4l.89-1.11c.03-.05.09-.14.11-.17.11-.13.02-.04.14-.1.03-.1-.02-.01.08-.15l.09-.12c.08-.09.16-.18.21-.24.06-.11 0-.02.1-.13.02-.02.06-.06.1-.11.08-.1.1-.15.23-.23.02-.12.11-.23.21-.27.08-.12.17-.24.26-.35.11-.13.17-.19.28-.25.04-.13.03-.18.18-.22.09-.14.19-.3.3-.42.12-.13.22-.24.32-.32.02-.05-.06-.07.06-.04.09-.18.51-.69.68-.79l-.01.01c.12-.24.12-.15.01-.19-.02.02-1.29.73-1.35.74zm-4.28 8.02v1.96l-.04 1.6c-.01.12-.01.15-.05.25-.08.18-.03.06-.1.12-.28.26-1.42.15-1.91.15H18.6c-.24 0-.65.01-1.12.02l5.29-4.1zm-5.5 4.1c-.42.01-.88.01-1.31.01l1.31-.01zm-1.47.01c-.59-.01-1.1-.03-1.31-.09-.07-.12-.17-.19-.28-.41-.08-.17-.17-.35-.15-.55-.04-.07 0 .04-.06-.12 0-.01-.03-.11-.03-.12-.02-.09-.02-.21-.03-.3-.01-.34-.12-.67-.17-.93l-.16-.1c-.45.07-1.01.25-1.48.16-.2-.04-.45-.14-.6-.24-.23-.16-.19-.28-.21-.61v-.83l.01-.75V3.9c.04-.37.1-.62.47-.58.18-.11 1.7-.06 1.88-.05h-.05l2.29.02c-.07.18-.04.47-.01.69l.05.16c.48.23.99.15 1.61.16.81 0 .61-.37.66-1.03h1.67-.05 1.3l1.2.03c-.13-.12-.67-.04-.89-.04.1-.14.48-.12.69-.13l.61.03c.03.2.01.09.22.29l.14.13c.02-.01.03-.04.04-.03l.1-.09.03-.03c.17-.15.31.02.09-.42.33.14.19.08 0 0 .19-.24-.12-.07.14-.07-.14-.43-.67-.61-1.27-.7l-.8.01-.75-.01-.81.01h-.74c-.23 0-.21.04-.29-.12-.03-.2-.01-.5-.05-.67-.06-.23-.14-.39-.18-.56L18.6.87l-.03-.03-.26-.35c-.26-.08-.42-.33-.95-.43-.42-.04-.77 0-1.11.17-.41.21-.51.21-1.01.27-.12.03-.52.09-.73.06-.1.07.02.02-.15.06-.03.01-.16.03-.19.03-.12.02-.21.03-.33.05l-1.12.16-1.33.21-.76.12-.86.12-.85.12-.73.13c-.21.03-.3.08-.5.05L6 1.89c-.4.07-.59.21-.84.27-.07.17-.09.19-.26.27-.04.16-.17.38-.23.59l.02.69.14 1.09-1.24.35-.88.25-1.44.44c-.34.08-.48.19-.74.31l-.2.17c-.07.13-.12.18-.18.32-.05.11-.07.22-.12.34l.04.73.27.87c.1.29.42 1.34.42 1.58.15.13.2.53.25.75l.2.74.46 1.57.27.86c.06.23.13.43.19.66.04.13.06.2.09.33.04.16.05.23.14.34l-.01.13.26.84.22.83.24.86c.08.11.14.38.13.54.14.14.26.7.3.95.07.09.38 1.21.37 1.38.09.08.02-.04.1.17.02.07.05.18.06.25.04.17.1.3.13.48l.23.77c.27.72.13.95.69 1.5.06.06.04.02.09.09l-.02-.01c.31.13.4.2.78.25l.7-.1 1.56-.46c.22-.07.51-.2.75-.18.15-.14.87-.3 1.04-.33l1.42-.42.76-.2 1.54-.47.76-.21.78-.22.91-.27.73-.02h3.84c.76-.01 1.65.1 2.32-.17.42-.28.73-.51.76-1.18l.01-.68V15.41c0-.05.01-.21-.01-.25-.05-.16.06-.05-.11-.12-.02.16.03.03-.09.2-.25.38-.72.85-.79 1.22l-6.98 4.11zm1.47-.01h-.01.01zM4.08 18.1l-.01-.19c-.07-.2-.16-.49-.16-.71-.14-.14-.25-.66-.29-.89-.07-.12-.27-.89-.3-1.05a.743.743 0 0 1-.09-.42c-.12-.14-.22-.62-.29-.83-.1-.32-.4-1.25-.39-1.5-.09-.11-.11-.23-.15-.38-.05-.19-.1-.28-.13-.5l-.23-.75-.46-1.55-.2-.72C1.3 8.47 1.01 7.46 1 7.27c-.01-.33.11-.4.36-.49.24-.08.43-.14.69-.19l.77-.22 1.56-.46c.18-.06.4-.15.62-.13l-.01.26c.15.2.16.73.19 1.03v.2c-.21.15-.58.22-.86.29l-.66.19-1.41.4c.04.22.07.17.04.36l.44.03c.19-.07 1.35-.43 1.57-.42.12-.12.24-.11.41-.16.18-.05.26-.08.45-.12l.13-.02c.04.23.08.41.06.62.12.1.1.44.1.6l-.35.09c-.18.07-.52.18-.72.17-.14.15-.52.2-.77.28-.28.08-.55.16-.83.22v.31c.08.04.04-.09.08.14.17.06.29-.06.55-.05.15-.16 1.42-.47 1.71-.52l.46-.14.09.54.09.7-.62.16-.06.03-.85.25-.63.18-.32.1v.2l.1.28.18-.01c.15-.14.53-.2.75-.23l1.52-.46.07.44.12.71-.28.08-.62.17-.8.23c-.2.09-.48.11-.62.25l.15.41.52-.13c.19-.11.54-.22.75-.2l.99-.29.03.28c.05.22.1.47.07.68.07.1.07.17.09.33.02.13.04.27.05.41.02.25.1.39.06.66.09.11.03-.01.08.2.01.06.02.17.03.23.02.17.05.35.06.52l.13.85.25 1.57c.03.26.12.51.07.78l.24.72c.13.14.12.11.16.27 1.17.74 1.08.39 2.4.08.15-.08.36-.14.54-.15.15.34.18.42.39.64.28.27.27.2.61.39l1.08.08-1.21.37h-.03l-.66.19c-.19.1-.5.18-.72.17-.14.15-.63.25-.86.29-.1.06-1.33.4-1.45.4l-.74.24c-.17.07-.42.16-.6.13-.07.05.09.04-.18.07-.06.01-.13 0-.19-.02-.28-.08-.36-.56-.42-.87-.08-.18-.13-.35-.13-.56-.12-.1-.46-1.41-.52-1.68-.09-.21-.19-.52-.17-.74-.15-.17-.23-.58-.27-.81l-.03-.03c-.03-.11-.05-.19-.08-.29a.699.699 0 0 1-.03-.12c-.1-.24-.01-.04-.09-.14zM16.01 1.6c.11-.5.31-.62.73-.84.17 0 .33-.04.52-.01.07.01.14.03.2.06.19.09.08.03.11.09.3.13.43.32.53.7.06.38-.12.63-.3.77-.34.28-.33.16-.32.73.02 1.03-.71.6-.78.49-.12-.19-.06-.49-.06-.73.01-.48-.09-.19-.25-.5-.24-.05-.45-.37-.38-.77zm6.34 1.67.01.04c.3 0 .4.22.38.53.14.19.05 2.82.05 3.28 0 .59-.07 2.95.04 3.35.11-.09.07-.08.2-.15.05-.15.05-.14.19-.19.11-.2.34-.42.57-.54l.01-.2v-5.5c0-.35-.01-.84-.26-.98-.27-.01.04-.18-.14.07.19.08.33.14 0 0 .22.44.08.27-.09.42l-.03.03-.1.09c-.01-.01-.02.03-.04.03L23 3.42c-.21-.2-.19-.09-.22-.29l-.61-.03c-.21.01-.59-.01-.69.13.22 0 .76-.08.89.04z" style="fill:#fefefe"/></svg>