<svg xmlns="http://www.w3.org/2000/svg" xml:space="preserve" width="72" height="73" style="shape-rendering:geometricPrecision;text-rendering:geometricPrecision;image-rendering:optimizeQuality;fill-rule:evenodd;clip-rule:evenodd" viewBox="0 0 5.61 5.69"><defs><style>.fil0{fill:#2d4eb1}</style></defs><g id="Слой_x0020_1"><g id="_1883863768944"><path d="M4.19 1.34c-.06 0-.09-.01-.13-.05a.15.15 0 0 1-.03-.17c.01-.01.02-.03.03-.05.01-.01.03-.02.05-.03.07-.04.17-.01.21.08.03.06.01.12-.03.17-.02.03-.07.05-.1.05zM4.08.85c-.01.01-.06.03-.07.03-.03-.02-.07-.1-.12-.06l-.07.07c-.01.01-.01.03-.01.05.01.02.05.05.07.07a.12.12 0 0 0-.03.08h-.09c-.03.01-.04.03-.04.05v.08c0 .07.07.06.13.06 0 .03.02.07.03.07-.01.01-.02.01-.02.03.02 0 .09.02.12.03.02 0 .03.01.04.02.01.01.03.04.03.05.02 0 .1-.05.17.01.02 0 .03.02.04.03 0 .01 0 .01.01.02v-.03c.02-.01.04-.01.08-.03.03.02.07.1.12.05.02-.02.07-.07.07-.09 0-.03 0-.03-.03-.05-.01-.01-.03-.03-.03-.04l.02-.05v-.02c.04 0 .13.01.13-.05v-.1c0-.02-.02-.04-.04-.04H4.5c0-.01-.01-.04-.02-.06 0 0 0-.01-.01-.02.01 0 .03-.02.04-.03.02-.02.03-.03.03-.06 0-.02-.02-.04-.03-.06-.02-.01-.04-.04-.05-.04-.05-.03-.08.04-.12.06-.01 0-.06-.02-.07-.03V.77C4.26.75 4.24.73 4.22.73h-.09c-.06 0-.05.07-.05.12zM3.23 1.38v.29c0 .01.02 0 .06.02.01 0 .02.01.03.01l.18.09c.01 0 .02 0 .03.01.12.06.14.05.28.03l.15-.02c.05-.01.09-.04.14-.08.02-.01.07-.04.08-.06.02-.01.04-.06.01-.06 0-.02.04-.04 0-.07-.04-.02-.08-.01-.12.01-.04.02-.04.06-.15.07-.07.01-.14.02-.21-.01l-.05-.02c.02-.01.16 0 .18 0h.03c.05.01.07.02.11-.02.01 0 .02-.03.02-.05 0-.02-.02-.04-.04-.05a.62.62 0 0 0-.23-.04c-.04-.01-.05-.01-.08-.02-.02-.01-.04-.03-.06-.03a.415.415 0 0 0-.27-.02l-.07.01c-.01 0-.02.01-.02.01zM3.02 1.35v.35c0 .02.02.03.04.03.08 0 .1.01.1-.05v-.31c0-.06-.02-.04-.11-.04-.01 0-.03 0-.03.02z" class="fil0"/><path d="M4.48 5.38c.35-.05.16 0 .23.07l-.23-.07zm-1.17.04c-.23.01-.09.05-.24-.05l.24.05zm-.44-.62 2.08.01-.01.32H2.85l.02-.33zm.01-.11.37-1.73h1.28l.37 1.73H2.88zM.4 3.94c-.13-.29.02-.35.08-.59l.01-1.27v-.35c.04-.2-.03-.12.15-.19.11.13.04-.03.09.2L.71 3.35c0 .13.29.25.1.58-.07.1-.31.12-.41.01zm3.59-1.22h-.2v-.19h.2v.19zm1.34-.42-2.88-.02L2.44.24l2.87.01.02 2.05zM1.94 3.45l.89.03c-.08.55-.57 2.01.25 2.19.35.08.47-.1.53-.31.92 0 .39.12.81.29.41.16.69-.3.73-.41.14-.4-.23-2.04-.44-2.51l-.46-.01v-.19l.97.01c.33.01.39-.08.39-.38L5.6.34C5.6.06 5.52 0 5.15 0L2.6.01c-.43 0-.45.09-.44.52v1.55c0 .4.05.44.36.44l1.02.01v.19h-.48l-.16.53c-.36 0-.75.02-1.07-.06-.31-.52.03-1.53-.14-2.2C1.53.38.51.31.5 1.26c-.13.06-.12.02-.25.13 0 .56.03 1.18.01 1.73-.01.16-.48 1.15.38 1.12.8-.02.34-.77.33-1.17-.01-.56 0-1.13 0-1.69-.16-.13-.28 0-.22-.32C.79.89.93.8 1.1.8c.91-.01-.25 2.47.84 2.65z" class="fil0"/><path d="m4.31 3.81-.78-.01.06-.14h.68l.04.15zm.31.28-.21-.67h-.98l-.18.67h1.37zM2.84.64h2.1V1.9H2.83L2.84.64zm2.21 1.37V.53L2.73.52 2.72 2l2.33.01zM.58 4.86c-.3-.01-.37-.17-.57-.01-.01.09-.06.14.24.22.23.06.55.06.77-.01.21-.07.24-.1.19-.21-.2-.16-.3.02-.63.01zM.59 4.43c-.24-.01-.2-.12-.41.02-.03.05-.13.24.46.23.52-.01.44-.2.41-.23-.22-.15-.2-.01-.46-.02z" class="fil0"/></g></g></svg>