<svg xmlns="http://www.w3.org/2000/svg" xml:space="preserve" width="28.809" height="29.225" style="shape-rendering:geometricPrecision;text-rendering:geometricPrecision;image-rendering:optimizeQuality;fill-rule:evenodd;clip-rule:evenodd" viewBox="0 0 33.94 34.43"><defs><style>.fil0{fill:#fefefe}</style></defs><g id="Layer_x0020_1"><g id="_2758475769888"><path d="M25.35 8.12c-.33 0-.53-.04-.78-.29a.964.964 0 0 1-.18-1.04c.04-.09.12-.21.19-.29.06-.06.2-.16.28-.19a.96.96 0 0 1 1.27.45c.18.36.09.75-.15 1.05-.13.16-.41.31-.63.31zm-.64-2.94c-.1.01-.35.13-.43.17-.19-.13-.43-.6-.72-.37l-.41.41c-.08.08-.11.18-.07.3.03.11.32.32.39.43-.02.08-.14.26-.2.5-.15 0-.4-.02-.53 0-.14.02-.24.15-.24.31v.48c0 .41.46.31.77.31.05.19.17.42.18.46-.03.05-.1.08-.12.14.16.01.59.12.73.18.12.05.19.1.28.18.05.04.18.21.19.28.08-.01.56-.28 1.02.02.09.06.16.13.21.23.02.04.02.07.05.09v-.14c.14-.07.28-.07.48-.21.23.15.43.64.76.31.12-.12.45-.4.45-.52 0-.2-.04-.21-.19-.35-.06-.06-.19-.18-.23-.24l.13-.31c.01-.03.02-.09.04-.12.23 0 .76.09.76-.26v-.6c0-.13-.12-.24-.25-.25-.16-.01-.35 0-.51 0-.02-.1-.09-.27-.13-.36-.02-.05-.04-.07-.06-.11.06-.04.18-.18.25-.24.12-.12.2-.15.2-.34 0-.14-.16-.26-.24-.34-.07-.07-.22-.24-.31-.28-.3-.14-.45.25-.69.41-.09-.05-.35-.17-.46-.18 0-.13.02-.42 0-.53a.295.295 0 0 0-.3-.24H25c-.4 0-.3.46-.3.77zM19.52 8.38v1.71c0 .07.17.03.39.13.06.03.12.05.18.08.21.09.83.39 1.07.5.06.03.12.05.18.08.74.37.85.33 1.7.19l.91-.13c.35-.06.56-.25.86-.45.13-.09.42-.28.52-.39.08-.09.23-.33.02-.38.01-.07.23-.24 0-.41-.21-.15-.49-.07-.69.04-.29.15-.29.38-.94.47-.41.06-.86.09-1.25-.07l-.32-.13c-.02-.01-.01-.01-.02-.02.14-.03.96.01 1.1.02.06.01.12 0 .18 0 .29.02.43.12.66-.11.05-.05.14-.22.14-.32 0-.12-.13-.26-.23-.32-.35-.18-1.03-.22-1.43-.26-.19-.02-.29-.06-.43-.13-.13-.06-.25-.13-.38-.18-.5-.21-1.09-.23-1.63-.12l-.46.1c-.05.01-.13.02-.13.07zM18.3 8.17v2.14c0 .11.1.14.21.14.5 0 .63.06.63-.27V8.27c0-.32-.15-.25-.67-.25-.09 0-.17.05-.17.14z" class="fil0"/><path d="M27.09 32.57c2.15-.33.97.01 1.42.41l-1.42-.41zm-7.08.25c-1.34.06-.55.3-1.44-.32l1.44.32zm-2.65-3.77 12.58.07-.04 1.93-12.64-.03.11-1.97zm.07-.65 2.25-10.48 7.74-.01 2.24 10.48-12.22.02zM2.45 23.84c-.83-1.73.1-2.12.49-3.57l.04-7.67c0-.2-.02-2.09-.02-2.13.27-1.21-.18-.7.93-1.13.67.79.22-.23.5 1.16l-.08 9.75c-.02.81 1.75 1.54.6 3.51-.46.65-1.87.76-2.48.08zm21.7-7.4h-1.22v-1.13h1.22v1.13zm8.14-2.55-17.43-.07-.1-12.36 17.4.06.13 12.38zm-20.54 6.99 5.41.2c-.5 3.27-3.46 12.16 1.46 13.23 2.12.46 2.86-.6 3.26-1.89 5.56 0 2.34.74 4.86 1.76 2.48 1 4.19-1.77 4.42-2.45.83-2.46-1.39-12.37-2.62-15.22l-2.82-.07v-1.13l5.88.08c2.01.03 2.34-.47 2.34-2.34l-.02-11c0-1.68-.54-2.04-2.76-2.05L15.77.08c-2.65.01-2.74.54-2.72 3.12l.02 9.4c.01 2.39.33 2.64 2.2 2.65l6.17.06v1.12l-2.9.05-.99 3.19c-2.17 0-4.55.1-6.46-.35-1.87-3.14.14-9.28-.89-13.32-.94-3.71-7.13-4.13-7.19 1.62-.8.38-.73.15-1.49.76 0 3.4.16 7.17.02 10.52-.04.95-2.9 6.93 2.34 6.76 4.81-.16 2.04-4.69 1.99-7.11-.06-3.36.02-6.82.02-10.19-1.02-.81-1.7-.03-1.33-1.96.19-.99 1.04-1.58 2.12-1.59 5.46-.04-1.54 15 5.06 16.08z" class="fil0"/><path d="m26.11 23.06-4.72-.08.37-.83 4.09.02.26.89zm1.88 1.71-1.3-4.05-5.9.01-1.13 4.03 8.33.01zM17.18 3.85l12.71.03.01 7.63-12.79.01.07-7.67zm13.39 8.33.01-8.99-14.06-.03-.07 8.95 14.11.08zM3.54 29.43c-1.82-.05-2.24-1.02-3.46-.06-.1.52-.38.83 1.47 1.31 1.38.35 3.28.37 4.62-.07 1.29-.42 1.46-.61 1.18-1.24-1.22-.97-1.86.11-3.81.06zM3.58 26.82c-1.44-.05-1.23-.75-2.48.11-.21.3-.79 1.46 2.79 1.4 3.11-.06 2.66-1.19 2.46-1.4-1.33-.9-1.17-.05-2.77-.11z" class="fil0"/></g></g></svg>