<svg xmlns="http://www.w3.org/2000/svg" xml:space="preserve" width="29.331" height="23.072" style="shape-rendering:geometricPrecision;text-rendering:geometricPrecision;image-rendering:optimizeQuality;fill-rule:evenodd;clip-rule:evenodd" viewBox="0 0 37.99 29.88"><defs><style>.fil0{fill:#fefefe}</style></defs><g id="Layer_x0020_1"><g id="_2758241392096"><path d="M20.14 29.17h-4.43c-.36.01-.58.06-.71-.23l-.08-.05c.12-.36.35-.35.79-.35h4.58c.27.03.36.11.41.34-.09.23-.26.3-.56.29zm-7.19-1.91c.13-.24.13-.27.36-.42.02-.09-.01-.15.31-.16.15-.01.34 0 .49.01.32.01.69-.01.98 0h4.31c.28-.02 2.57-.01 2.69.04l.18.1c.15.09.12.09.23.22.06.07.08.07.12.12.12.14.05.02.08.16.23.14.23.2.36.42.07.03.04 0 .08.07H12.46c.06-.11.37-.53.47-.56zM3.92 5.66c-.12.14-.1.08-.22.17-.1.09-.08.09-.15.18-.35.57-.24 1.29-.24 2.05v6.81c0 1.17.08 8.56-.06 9.06-.12.23-.18.26-.35.43-.09.16-.07.1-.2.25-.11.12-.06.16-.19.2-.08.12-.13.23-.23.3-.11.13-.13.17-.24.3-.11.13-.12.23-.28.29l-.12.2c-.13.18-.3.35-.44.53-.09.12-.14.15-.23.26-.11.12-.11.15-.25.29l-.68.83c-.04.14 0 .34-.04.53.11.11.15.25.21.43l.08.17c.17.11.16.15.28.27.13.14.16.08.27.28.1.01.08-.06.17.08.2.06.54.14.68.26l.79.03H7.59l.73-.01h24.17l1.09.03.33-.07c.91-.22 1.4-.74 1.58-1.71-.01-.25-.04-.24-.09-.43-.12-.05-.29-.28-.36-.4-.01-.01-.02-.03-.03-.03l-.35-.45c-.15-.02-.13-.11-.14-.18-.15-.1-1.18-1.29-1.23-1.49-.03-.02-.05-.01-.11-.07-.13-.14-.05-.05-.08-.16a.69.69 0 0 1-.24-.21c-.06-.08-.14-.17-.19-.26-.05-.05-.18-.21-.23-.3-.02-.02-.08-.06-.12-.13a.656.656 0 0 1-.08-.21l-.02-6.25-1.88.01-.01.31c0 .81.14 3.85-.19 4.31-.1.21-.28.41-.56.42-.15.13-.49.13-.73.12H6.8l-.88-.05c-.3-.1-.52-.21-.64-.45l-.05-.08c-.1-.14-.11-.25-.15-.45-.09-1.5-.02-3.25-.02-4.8 0-1.21-.09-8.95.1-9.48.22-.62.83-.75 1.6-.73 2.01.06 4.77 0 6.86 0 1.05 0 4.99.07 5.66-.05l.08-.37c.01-.31.05-.56-.11-.8l-.74.02H4.68c-.4.01-.49.08-.8.19z" class="fil0"/><path d="M15.74 17.87h2.59v-2.61l-2.59.01zM20.27 18.48h2.6v-2.61l-2.6.01zM17.88 13.95h2.6v-2.61l-2.6.01zM20.9 9.83h4.06V5.75l-4.06.02zM26.57 9.1h4.06V5.01l-4.06.02zM25.29 17.43h3.34v-3.37l-3.34.02zM22.27 13.78h3.35v-3.37l-3.35.02zM25.78 4.04h3.35V.67l-3.35.02zM29.61 16.6h6.11v-6.14l-6.11.03zM31.87 6.14h6.12V0l-6.12.03z" class="fil0"/></g></g></svg>