<svg xmlns="http://www.w3.org/2000/svg" xml:space="preserve" width="26.247" height="27.603" style="shape-rendering:geometricPrecision;text-rendering:geometricPrecision;image-rendering:optimizeQuality;fill-rule:evenodd;clip-rule:evenodd" viewBox="0 0 30.75 32.33"><defs><style>.fil0{fill:#fefefe}</style></defs><g id="Layer_x0020_1"><g id="_2758695496640"><path d="M8.89 15.45C3.78 19.19-.91 14.03.15 27.07l14.26-.13 2.28-1.71c-.96-3.23-1.19-5.14 1.29-8.61-.5-.39-1.34-.84-1.94-1.17-.27-3.04 3.35-2.99 2.7-9.3-.85-8.24-11.37-8.06-12.47-.33-.75 5.24 2.79 7.16 2.62 9.64z" class="fil0"/><path d="M23.06 17.19c6.27-1.42 7.73 7.79 2.26 9.09-6.46 1.54-8-7.8-2.26-9.09zm-7.71 11.03c-1.1 1.03-2.39 2.35-1.24 3.58 2.68 2.27 5.61-3.46 6.7-4.23.83.34 1.67.93 3.31.76 6.02.03 8.38-7.08 5.21-10.66-5.9-6.66-14.82 1.05-10.92 7.43-1.1 1.09-1.94 2.04-3.06 3.12z" class="fil0"/></g></g></svg>