<svg xmlns="http://www.w3.org/2000/svg" xml:space="preserve" width="24.927" height="24.498" style="shape-rendering:geometricPrecision;text-rendering:geometricPrecision;image-rendering:optimizeQuality;fill-rule:evenodd;clip-rule:evenodd" viewBox="0 0 22.17 21.79"><defs><style>.fil0{fill:#fefefe}</style></defs><g id="Layer_x0020_1"><g id="_2758688709264"><path d="M18.22 15.55c-.55 0-.45-.03-.89-.36l-1.45-1.09c-.25-.23-.26.01-.51.38-.1.15-.22.34-.35.47l-.56.55c-.32.27-.69.5-1.06.69-.1.05-.19.08-.28.13l-.61.21c-.18.04-.54.11-.68.17 0 .12.04.18.07.28.01.04.01.03.02.07l.24.72c.06.19.28.7.28.86l-1.11.12c-.18 0-.27-.01-.41.03-.33.07-.91-.02-1.11.32-.16.27.01.62.24.76.08.05.1.05.2.09.13.06.05.03.24.06.11.01.12.04.24.05l1.34.03 1.56-.11c.2-.04.26-.05.48-.07.13-.01.09-.04.21-.05.14-.02.14.01.26-.03.2-.07.46-.11.64-.17.09-.03.16-.03.23-.06.13-.57.08-.62.48-1.13.14-.18.41-.33.63-.42l.11-.03c.38-.09.27-.08.73-.08.16 0 .36.12.51.16.11.03.14-.02.21-.07.28-.22.54-.48.79-.73 0 0 .01-.01.02-.01l.71-.78c.11-.13.19-.24.3-.37l.03-.03.39-.55c.06-.08.1-.12.15-.2l.12-.2c.21-.37.42-.77.54-1.18l.12-.35c.02-.06.02-.08.04-.14.02-.07.02-.06.03-.11l.23-.96c.02-.11 0-.19.02-.3.05-.37.1-.59-.02-.96-.17-.5-.99-.69-1.17 0l-.16.77c-.02.1-.03.08-.05.18l-.51 1.62c-.26.58-.54 1.39-1.11 1.72-.07.04-.28.13-.36.13zM2.39 5.9c0 .23.04.39.21.55.48.45.82-.03 1.18-.37.37-.34.76-.64 1.17-.93.45-.32 1.36-.87 1.87-1.02.44-.13 1.1-.04 1.29.43.14.34.24.73.34 1.09.03.1.02.13.06.23l.25.88c.08.29.34.09.57 0 .05-.02.08-.03.12-.05l.86-.22c.28-.07 1.38-.06 1.64-.01l.3.05c.09.01.05.01.13.04.15.06.34.08.49.15.05.02.01.01.06.03l.37.15c.08.04.18.08.29.09.03-.06.01-.05.04-.11l.04-.1.37-1.18c.07-.16.12-.32.14-.51.2.05.38.2.55.3l1.09.63c.13.08.28.18.42.22.15.04.29.08.44-.02l.17-.2a.73.73 0 0 0 .08-.33l-.11-.3c-.25-.35-.57-.62-.91-.87-.12-.09-.21-.14-.33-.23L14 3.28c-.05-.03-.05-.03-.09-.06l-1.3-.59c-.3-.1-.21-.14-.5.14-.12.12-.3.22-.45.28l-.36.11c-.35.08-.63.02-.96-.09-.69-.23-.85-.83-.98-.83-.51 0-.63.08-.85.09l-.58.06c-.11.02-.12.05-.38.09-.1.01-.04.02-.14.04-.14.03-.13 0-.27.05l-2.13.78c-.55.31-1.21.77-1.66 1.23l-.77.83-.17.32c-.02.04-.02.07-.02.15z" class="fil0"/><path d="M2.92 13.13v.58c0 .12.22.78.27.95.01.03.01.03.02.07l.26.73c.04.09.06.16.1.25l.87 1.81c.08.15.25.48.38.58.11.08.6-.08 1.12.11.05.02.01 0 .06.03l.06.03c.05.02.07.03.12.06.27.15.53.39.66.68l.1.22c.11.29.12.56.12.9.28.19.59.34.88.52.4.23.97.47 1.41.63.02.01.04.01.06.02l1.67.49h2.39c.16 0 .32-.1.5-.11.2-.02.33-.05.49-.13.15-.07.27-.13.38-.23.23-.21.24-.5.13-.76-.01-.03-.01-.03-.03-.06-.15-.31-.55-.22-.83-.22-.12 0-.18.04-.32.06-.33.06-.74.03-1.08.06-.21.02-1.2-.02-1.4-.06-.12-.03-.18-.05-.32-.06-.22-.01-.73-.12-.91-.22a1.16 1.16 0 0 1-.46-.39l-.04-.05a.917.917 0 0 1-.16-.48c0-.1.2-.63.25-.77.13-.35.23-.74.38-1.08.08-.2.19-.43.19-.66-.11-.03-.22-.04-.34-.07l-.91-.32c-.54-.23-1.05-.58-1.46-.99a5.38 5.38 0 0 1-.89-1.18l-.14-.24c-.13.03-.15.05-.23.12l-1.01.76c-.13.1-.28.25-.44.29-.01-.15 0-.03-.03-.11 0-.01-.01-.01-.01-.02l-.21-.49c-.03-.06-.02-.05-.04-.1l-.6-1.35c-.2-.32-.46-.36-.76-.17-.1.06-.23.23-.23.38zM13.3 2.17c0 .36.36.5.62.64.05.02.08.05.13.07.97.55 1.95 1.25 2.67 2.11.21.25.34.4.37.74.02.24-.02.52-.06.62-.03.08 0 .04-.07.11-.13.14-.78.58-.96.7-.32.2-.61.45-.93.64l-.04.02c-.11.06-.03.06-.16.07v.2c.14.04.33.33.42.45.25.36.48.73.63 1.15.11.32.15.61.29.61h1.81l.16 1.09c.02.17.03.44.04.6.02.19-.02.42-.03.61-.02.27-.09.56-.15.81l-.18.78c-.07.3-.27.94.19 1.06.07.02.23.04.25.04.02 0 .12-.03.13-.03.16-.04.29-.15.38-.29.2-.28.33-.58.44-.91l.36-1.15c.03-.13.04-.14.07-.28l.2-.82c.03-.1.01-.16.04-.28.03-.15.04-.11.05-.3.01-.21.09-.32.09-.58 0-1.1.13-.5-.54-1.07-.07-.06-.1-.11-.17-.18-.1-.12-.19-.27-.25-.42l-.15-.55c0-.42.1-.87.37-1.2.04-.04.07-.06.1-.11.09-.13-.12-.48-.19-.64l-.2-.41c-.19-.32-.35-.68-.54-1-.2-.33-.42-.6-.63-.92l-.45-.54s-.01-.01-.01-.02c0 0-.01-.01-.01-.02 0 0-.01-.01-.01-.02l-1.08-.93-.68-.46c-.07-.05-.04-.03-.13-.08-.05-.03-.09-.05-.13-.07-.08-.05-.15-.08-.24-.14a.169.169 0 0 0-.06-.03l-.08-.04c-.01 0-.01-.01-.02-.01s-.01-.01-.02-.01l-.36-.16c-.07-.03 0 0-.06-.03l-.06-.02c-.09-.03-.1-.06-.17-.06-.43 0-.75-.05-.94.4-.03.06-.05.16-.05.24z" class="fil0"/><path d="m2.92 7.65.14.27c0 .01.01.04.01.04 0 .01.01.01.01.02s.01.03.02.04c.05.12.03.09.06.23.07.36.05.44-.02.79-.09.45-.46.91-.88 1.1-.41.18-.57.12-.59.37-.01.12.01.07-.03.17-.02.05-.04.1-.05.15-.01.08 0 .11-.02.18l-.19 1.27c0 .18-.01.25-.03.41-.02.14-.02.21-.03.38 0 .16-.04.22-.03.41.01.23.04.52.08.74.02.13 0 .27.01.39.01.09.03.08.05.16l.22.88c0 .01 0 .01.01.02.17.58.42 1.2.73 1.72.03.05.01.01.03.05.67 1.19 1.52.66 1.52.17 0-.19-.16-.48-.25-.65-.03-.06-.03-.05-.06-.12l-.12-.26-.02-.06-.07-.17c0-.01-.01-.01-.01-.02l-.58-2.02c-.02-.13-.06-.17-.07-.28l-.06-.7c-.02-.21-.02-.41.02-.63l.16-1c.01-.24.01-.46.07-.69.02-.09.03-.04.04-.13.03-.19-.04-.38.11-.51s.48-.07.68-.07h2.33l.12-.34c.1-.41.39-.94.62-1.28.15-.21.36-.49.54-.66.12-.11.24-.15-.04-.33l-.03-.02c-.01 0-.01-.01-.02-.01s-.01-.01-.02-.01l-1.16-.82c-.07-.05-.14-.11-.22-.13.03-.11.24-.27.35-.35l.44-.38s.01-.01.02-.01l.17-.15c.09-.09.16-.13.25-.22l.34-.3.01-.01s.01-.01.01-.02c.08-.09.16-.15.21-.26.07-.15.07-.1.07-.28 0-.03-.07-.16-.08-.18a.83.83 0 0 0-.13-.14c-.41-.37-1.01.05-1.38.27-.13.08-.18.11-.3.2l-.81.62c-.05.04-.09.07-.13.1-.34.26-.97.79-1.27 1.15l-.11.13c-.04.05-.07.07-.12.12-.06.06-.06.08-.12.15-.15.16-.31.36-.43.53zM10.96 3.01c.14 0 .31-.05.46-.09l.4-.19c.39-.27.69-.77.69-1.24 0-.18-.08-.48-.15-.64-.11-.26-.31-.47-.53-.64-.39-.29-.66-.21-1.22-.21-.15 0-.18.04-.27.09-.1.05-.13.05-.22.13-.38.29-.45.41-.6.8-.08.2-.07.42-.05.62.05.54.41 1.03.9 1.23l.59.14zM15.69 19.52c0 .3 0 .55.15.81.17.28.33.49.63.65.32.17.77.23 1.08.14l.24-.09c.03-.02.08-.04.12-.06.18-.09.25-.16.38-.29.37-.37.43-.74.43-1.2 0-.11-.02-.06-.06-.26-.07-.34-.42-.76-.75-.91-.08-.04-.15-.08-.22-.1l-.14-.03c-.11-.03 0-.04-.14-.04-.5 0-.49-.04-.91.17-.44.22-.81.76-.81 1.2z" class="fil0"/><path d="M0 8.15v.87c0 .1.17.4.25.48.22.27.41.41.73.52.32.12.21.07.71.07.1 0 .29-.07.38-.11.21-.09.41-.24.55-.41l.23-.38c.13-.28.18-.59.09-.88-.1-.32-.12-.48-.41-.76-.28-.28-.27-.25-.58-.38-.37-.16-.53-.1-.78-.06-.17.03-.12 0-.26.06-.31.14-.49.26-.71.55-.05.06-.22.35-.22.42zM19.19 8.17c0 .35.01.54.2.88.15.27.33.42.61.59.02.01.1.05.11.06.04.02.03.01.07.02.01 0 .02 0 .02.01l.04.02c.23.08.62.1.86.02.36-.12.59-.26.83-.57.33-.42.23-.66.23-1.31 0-.11-.15-.34-.21-.43-.25-.33-.36-.4-.72-.56-.13-.06-.09-.04-.25-.07-.21-.04-.12-.05-.36-.05-.15 0-.03.01-.14.04-.31.09-.47.07-.82.4l-.03.03s-.01.01-.01.02l-.26.36c-.08.15-.17.39-.17.56zM3.79 19.81c0 .38.14.77.41 1.04.44.44.99.62 1.61.4.09-.03.05-.01.13-.05.04-.02.08-.05.13-.07.14-.07.25-.17.35-.29.16-.19.2-.24.28-.45.12-.27.16-.62.07-.9-.01-.04-.02-.09-.04-.14-.03-.08-.07-.17-.11-.24-.15-.27-.45-.56-.73-.67-.1-.04-.17-.08-.26-.09-.58-.09-.95.01-1.39.39-.15.13-.24.29-.33.46-.08.14-.15.46-.15.61z" class="fil0"/></g></g></svg>